<svg xmlns="http://www.w3.org/2000/svg" xmlns:xlink="http://www.w3.org/1999/xlink" width="50" zoomAndPan="magnify" viewBox="0 0 37.5 37.499999" height="50" preserveAspectRatio="xMidYMid meet" version="1.0"><defs><clipPath id="4431e1d0d0"><path d="M 0 0 L 37.007812 0 L 37.007812 37.007812 L 0 37.007812 Z M 0 0 " clip-rule="nonzero"/></clipPath><clipPath id="8a5b5048f3"><path d="M 16.382812 5.609375 L 22.992188 5.609375 L 22.992188 13.71875 L 16.382812 13.71875 Z M 16.382812 5.609375 " clip-rule="nonzero"/></clipPath><clipPath id="ac54a2e641"><path d="M 10.65625 11.941406 L 26.347656 11.941406 L 26.347656 20.855469 L 10.65625 20.855469 Z M 10.65625 11.941406 " clip-rule="nonzero"/></clipPath><clipPath id="ba7929f903"><path d="M 10.617188 19.917969 L 26.398438 19.917969 L 26.398438 21.789062 L 10.617188 21.789062 Z M 10.617188 19.917969 " clip-rule="nonzero"/></clipPath><clipPath id="52e3ec165b"><path d="M 18.503906 19.917969 C 14.148438 19.917969 10.617188 20.335938 10.617188 20.851562 C 10.617188 21.371094 14.148438 21.789062 18.503906 21.789062 C 22.859375 21.789062 26.390625 21.371094 26.390625 20.851562 C 26.390625 20.335938 22.859375 19.917969 18.503906 19.917969 Z M 18.503906 19.917969 " clip-rule="nonzero"/></clipPath></defs><g clip-path="url(#4431e1d0d0)"><path fill="#ffffff" d="M 0 0 L 37.007812 0 L 37.007812 37.007812 L 0 37.007812 Z M 0 0 " fill-opacity="1" fill-rule="nonzero"/><path fill="#ffffff" d="M 0 0 L 37.007812 0 L 37.007812 37.007812 L 0 37.007812 Z M 0 0 " fill-opacity="1" fill-rule="nonzero"/></g><g clip-path="url(#8a5b5048f3)"><path fill="#4f4c4c" d="M 17.78125 5.613281 C 17.777344 5.613281 17.769531 5.613281 17.761719 5.613281 C 17.347656 5.609375 16.988281 6.152344 16.765625 6.742188 C 16.535156 7.34375 16.445312 7.992188 16.492188 8.429688 C 16.554688 9.023438 16.820312 9.34375 17.167969 9.601562 C 17.4375 9.785156 17.589844 10.265625 17.570312 10.761719 C 17.535156 11.738281 17.496094 12.707031 17.441406 13.664062 C 17.628906 13.425781 17.832031 13.191406 18.066406 12.960938 C 18.03125 12.234375 18 11.5 17.976562 10.761719 C 17.957031 10.265625 18.109375 9.785156 18.375 9.601562 C 18.722656 9.34375 18.992188 9.023438 19.054688 8.429688 C 19.097656 7.992188 19.007812 7.34375 18.78125 6.742188 C 18.554688 6.152344 18.195312 5.609375 17.78125 5.613281 Z M 22.839844 5.71875 C 22.832031 5.65625 22.78125 5.613281 22.722656 5.613281 C 22.65625 5.613281 22.601562 5.667969 22.601562 5.730469 L 22.601562 8.613281 C 22.601562 8.675781 22.5625 8.730469 22.503906 8.742188 C 22.421875 8.757812 22.351562 8.695312 22.351562 8.617188 L 22.351562 5.730469 C 22.351562 5.667969 22.296875 5.613281 22.230469 5.613281 L 22.144531 5.613281 C 22.078125 5.613281 22.027344 5.667969 22.027344 5.730469 L 22.027344 8.613281 C 22.027344 8.675781 21.984375 8.730469 21.925781 8.742188 C 21.847656 8.757812 21.773438 8.695312 21.773438 8.617188 L 21.773438 5.730469 C 21.773438 5.667969 21.71875 5.613281 21.65625 5.613281 L 21.566406 5.613281 C 21.503906 5.613281 21.449219 5.667969 21.449219 5.730469 L 21.449219 8.613281 C 21.449219 8.675781 21.410156 8.730469 21.351562 8.742188 C 21.269531 8.757812 21.199219 8.695312 21.199219 8.617188 L 21.199219 5.730469 C 21.199219 5.667969 21.144531 5.613281 21.078125 5.613281 L 20.992188 5.613281 C 20.925781 5.613281 20.871094 5.667969 20.871094 5.730469 L 20.871094 8.613281 C 20.871094 8.675781 20.832031 8.730469 20.773438 8.742188 C 20.691406 8.757812 20.621094 8.695312 20.621094 8.617188 L 20.621094 5.730469 C 20.621094 5.667969 20.566406 5.613281 20.503906 5.613281 C 20.441406 5.613281 20.390625 5.65625 20.382812 5.71875 C 20.324219 6.28125 20.304688 8.183594 20.332031 8.429688 C 20.394531 9.023438 20.660156 9.34375 21.007812 9.601562 C 21.273438 9.785156 21.425781 10.265625 21.410156 10.761719 C 21.40625 10.839844 21.402344 10.921875 21.402344 11 C 21.542969 10.9375 21.683594 10.871094 21.816406 10.808594 C 21.816406 10.792969 21.816406 10.777344 21.8125 10.761719 C 21.796875 10.265625 21.949219 9.785156 22.214844 9.601562 C 22.5625 9.34375 22.828125 9.023438 22.894531 8.429688 C 22.917969 8.183594 22.902344 6.28125 22.839844 5.71875 " fill-opacity="1" fill-rule="nonzero"/></g><path fill="#80cc28" d="M 23.371094 11.644531 C 23.371094 11.644531 21.609375 16.199219 15.210938 17.710938 C 17.089844 15.609375 16.960938 13.105469 20.957031 11.523438 C 23 10.714844 24.171875 9.796875 24.171875 9.796875 C 24.171875 9.796875 24.121094 19.679688 17.203125 17.753906 C 17.203125 17.753906 21.6875 16.792969 23.371094 11.644531 " fill-opacity="1" fill-rule="nonzero"/><path fill="#40b93c" d="M 13.355469 9.03125 C 13.355469 9.03125 13.480469 12.058594 16.933594 14.226562 C 16.25 12.617188 16.828125 11.171875 14.796875 9.445312 C 13.761719 8.558594 13.253906 7.789062 13.253906 7.789062 C 13.253906 7.789062 11.308594 13.597656 15.753906 13.855469 C 15.753906 13.855469 13.3125 12.390625 13.355469 9.03125 " fill-opacity="1" fill-rule="nonzero"/><g clip-path="url(#ac54a2e641)"><path fill="#393536" d="M 22.148438 19.75 L 22.148438 19.746094 L 22.152344 19.753906 C 22.152344 19.753906 22.152344 19.753906 22.148438 19.75 Z M 14.851562 19.75 L 14.855469 19.746094 L 14.851562 19.75 C 14.847656 19.753906 14.851562 19.75 14.851562 19.75 Z M 26.3125 11.988281 C 26.289062 12.171875 26.265625 12.355469 26.246094 12.539062 C 26.214844 12.722656 26.175781 12.902344 26.148438 13.082031 C 26.109375 13.261719 26.058594 13.4375 26.015625 13.617188 C 25.996094 13.707031 25.960938 13.789062 25.933594 13.878906 C 25.90625 13.964844 25.878906 14.050781 25.851562 14.136719 C 25.828125 14.222656 25.789062 14.308594 25.757812 14.390625 L 25.65625 14.644531 C 25.625 14.730469 25.582031 14.808594 25.542969 14.890625 L 25.425781 15.136719 C 25.390625 15.21875 25.34375 15.292969 25.300781 15.371094 L 25.167969 15.609375 C 25.128906 15.6875 25.074219 15.761719 25.027344 15.835938 L 24.878906 16.0625 C 24.832031 16.136719 24.777344 16.207031 24.722656 16.277344 L 24.566406 16.492188 C 24.515625 16.566406 24.449219 16.632812 24.394531 16.699219 L 24.222656 16.902344 C 24.105469 17.035156 23.976562 17.160156 23.855469 17.285156 C 23.726562 17.410156 23.589844 17.523438 23.460938 17.644531 C 23.328125 17.757812 23.183594 17.863281 23.046875 17.972656 C 22.90625 18.078125 22.757812 18.171875 22.613281 18.273438 L 22.160156 18.542969 L 21.691406 18.78125 L 20.761719 19.25 L 21.757812 19.574219 L 21.769531 19.574219 C 21.691406 19.597656 21.613281 19.617188 21.53125 19.636719 C 21.34375 19.679688 21.148438 19.710938 20.949219 19.742188 C 20.550781 19.800781 20.140625 19.835938 19.734375 19.859375 C 19.527344 19.871094 19.324219 19.878906 19.117188 19.886719 C 18.910156 19.890625 18.714844 19.894531 18.5 19.894531 C 18.296875 19.894531 18.089844 19.890625 17.882812 19.886719 C 17.679688 19.882812 17.472656 19.871094 17.269531 19.859375 C 16.859375 19.835938 16.453125 19.800781 16.054688 19.742188 C 15.855469 19.714844 15.660156 19.679688 15.46875 19.636719 C 15.390625 19.617188 15.308594 19.597656 15.230469 19.574219 L 15.242188 19.570312 L 16.238281 19.25 L 15.308594 18.78125 L 14.839844 18.542969 L 14.386719 18.273438 C 14.242188 18.175781 14.097656 18.078125 13.953125 17.976562 C 13.816406 17.863281 13.675781 17.757812 13.539062 17.644531 C 13.410156 17.527344 13.273438 17.410156 13.148438 17.289062 C 13.027344 17.160156 12.898438 17.035156 12.78125 16.902344 L 12.605469 16.699219 C 12.550781 16.632812 12.488281 16.566406 12.4375 16.496094 L 12.277344 16.28125 C 12.226562 16.207031 12.167969 16.136719 12.121094 16.0625 L 11.976562 15.835938 C 11.925781 15.761719 11.875 15.6875 11.832031 15.609375 L 11.703125 15.375 C 11.660156 15.292969 11.609375 15.21875 11.574219 15.136719 L 11.457031 14.890625 C 11.417969 14.808594 11.375 14.730469 11.34375 14.644531 L 11.246094 14.390625 C 11.214844 14.308594 11.175781 14.226562 11.148438 14.136719 L 11.066406 13.878906 C 11.039062 13.789062 11.003906 13.707031 10.984375 13.617188 C 10.941406 13.4375 10.894531 13.261719 10.855469 13.082031 C 10.824219 12.902344 10.785156 12.722656 10.757812 12.539062 C 10.734375 12.355469 10.714844 12.171875 10.691406 11.988281 C 10.679688 12.171875 10.671875 12.359375 10.664062 12.542969 C 10.664062 12.730469 10.671875 12.917969 10.679688 13.105469 C 10.691406 13.292969 10.71875 13.480469 10.738281 13.667969 C 10.746094 13.761719 10.769531 13.855469 10.785156 13.945312 L 10.835938 14.226562 C 10.851562 14.320312 10.882812 14.410156 10.90625 14.5 L 10.980469 14.777344 C 11 14.867188 11.035156 14.957031 11.066406 15.046875 L 11.160156 15.316406 C 11.222656 15.496094 11.308594 15.667969 11.382812 15.84375 C 11.417969 15.933594 11.464844 16.015625 11.511719 16.101562 L 11.644531 16.355469 C 11.683594 16.445312 11.742188 16.523438 11.789062 16.605469 L 11.941406 16.847656 C 11.992188 16.933594 12.050781 17.007812 12.105469 17.085938 L 12.277344 17.320312 C 12.394531 17.472656 12.523438 17.617188 12.644531 17.765625 C 12.773438 17.910156 12.914062 18.046875 13.046875 18.1875 C 13.1875 18.320312 13.332031 18.445312 13.476562 18.574219 C 13.628906 18.699219 13.785156 18.816406 13.9375 18.933594 C 14.035156 19 14.132812 19.066406 14.230469 19.128906 C 14.21875 19.140625 14.210938 19.148438 14.199219 19.164062 C 14.179688 19.1875 14.160156 19.207031 14.136719 19.238281 C 14.128906 19.253906 14.117188 19.269531 14.109375 19.28125 C 14.097656 19.300781 14.089844 19.320312 14.082031 19.339844 C 14.0625 19.375 14.046875 19.421875 14.035156 19.464844 C 14.03125 19.488281 14.027344 19.515625 14.027344 19.539062 L 14.023438 19.578125 L 14.023438 19.585938 C 14.023438 19.578125 14.03125 19.699219 14.027344 19.648438 L 14.027344 19.652344 L 14.03125 19.671875 L 14.03125 19.6875 L 14.035156 19.710938 C 14.046875 19.769531 14.070312 19.835938 14.097656 19.882812 C 14.113281 19.914062 14.132812 19.945312 14.15625 19.972656 C 14.175781 20 14.191406 20.019531 14.214844 20.042969 C 14.222656 20.054688 14.234375 20.066406 14.242188 20.074219 L 14.269531 20.097656 C 14.289062 20.113281 14.308594 20.128906 14.328125 20.144531 L 14.378906 20.179688 C 14.445312 20.226562 14.507812 20.261719 14.570312 20.292969 C 14.816406 20.410156 15.035156 20.472656 15.257812 20.53125 C 15.476562 20.585938 15.695312 20.625 15.910156 20.664062 C 16.347656 20.734375 16.777344 20.78125 17.207031 20.808594 C 17.425781 20.824219 17.640625 20.832031 17.855469 20.839844 C 18.070312 20.847656 18.285156 20.851562 18.503906 20.851562 C 18.710938 20.851562 18.933594 20.847656 19.148438 20.839844 C 19.363281 20.835938 19.578125 20.824219 19.792969 20.808594 C 20.226562 20.78125 20.65625 20.734375 21.089844 20.664062 C 21.308594 20.625 21.527344 20.585938 21.746094 20.53125 C 21.96875 20.472656 22.1875 20.410156 22.433594 20.292969 C 22.492188 20.261719 22.554688 20.230469 22.625 20.183594 L 22.675781 20.144531 C 22.695312 20.128906 22.714844 20.113281 22.734375 20.097656 L 22.761719 20.074219 C 22.769531 20.066406 22.78125 20.054688 22.789062 20.042969 C 22.808594 20.019531 22.828125 20.003906 22.847656 19.972656 C 22.871094 19.945312 22.890625 19.914062 22.90625 19.882812 C 22.925781 19.84375 22.941406 19.800781 22.957031 19.761719 C 22.96875 19.71875 22.976562 19.664062 22.980469 19.617188 L 22.980469 19.597656 C 22.980469 19.632812 22.976562 19.539062 22.976562 19.546875 L 22.976562 19.527344 L 22.972656 19.503906 C 22.964844 19.441406 22.9375 19.363281 22.921875 19.335938 C 22.914062 19.320312 22.90625 19.300781 22.894531 19.28125 C 22.886719 19.265625 22.875 19.253906 22.863281 19.238281 C 22.84375 19.207031 22.824219 19.183594 22.804688 19.160156 C 22.792969 19.148438 22.785156 19.140625 22.773438 19.128906 C 22.871094 19.066406 22.96875 19.003906 23.066406 18.9375 C 23.21875 18.816406 23.375 18.699219 23.523438 18.578125 C 23.667969 18.449219 23.816406 18.320312 23.957031 18.1875 C 24.089844 18.046875 24.230469 17.910156 24.359375 17.769531 C 24.480469 17.617188 24.609375 17.476562 24.726562 17.320312 L 24.898438 17.085938 C 24.953125 17.007812 25.011719 16.933594 25.0625 16.851562 L 25.214844 16.605469 C 25.261719 16.523438 25.320312 16.445312 25.359375 16.359375 L 25.492188 16.101562 C 25.539062 16.015625 25.585938 15.933594 25.621094 15.84375 L 25.734375 15.582031 C 25.773438 15.496094 25.8125 15.410156 25.84375 15.316406 L 25.9375 15.046875 C 25.964844 14.957031 26 14.867188 26.023438 14.777344 L 26.097656 14.5 C 26.121094 14.410156 26.152344 14.320312 26.167969 14.226562 C 26.203125 14.039062 26.242188 13.855469 26.265625 13.667969 C 26.285156 13.480469 26.3125 13.292969 26.324219 13.105469 C 26.332031 12.917969 26.339844 12.730469 26.339844 12.546875 C 26.332031 12.359375 26.324219 12.171875 26.3125 11.988281 " fill-opacity="1" fill-rule="nonzero"/></g><g clip-path="url(#ba7929f903)"><g clip-path="url(#52e3ec165b)"><path fill="#393536" d="M 10.617188 19.917969 L 26.390625 19.917969 L 26.390625 21.789062 L 10.617188 21.789062 Z M 10.617188 19.917969 " fill-opacity="1" fill-rule="nonzero"/></g></g><path fill="#3ca638" d="M 6.0625 25.804688 L 5.277344 25.804688 L 5.277344 24.855469 L 4.304688 23.355469 L 5.210938 23.355469 L 5.679688 24.171875 L 5.691406 24.171875 L 6.164062 23.355469 L 7.019531 23.355469 L 6.0625 24.855469 Z M 6.0625 25.804688 " fill-opacity="1" fill-rule="nonzero"/><path fill="#3ca638" d="M 9.816406 24.820312 C 9.816406 25.152344 9.710938 25.40625 9.5 25.582031 C 9.289062 25.757812 8.992188 25.847656 8.601562 25.847656 C 8.210938 25.847656 7.910156 25.757812 7.699219 25.582031 C 7.488281 25.40625 7.382812 25.152344 7.382812 24.820312 L 7.382812 23.355469 L 8.167969 23.355469 L 8.167969 24.808594 C 8.167969 24.945312 8.203125 25.054688 8.277344 25.136719 C 8.351562 25.21875 8.457031 25.261719 8.597656 25.261719 C 8.738281 25.261719 8.84375 25.21875 8.917969 25.136719 C 8.996094 25.054688 9.03125 24.945312 9.03125 24.808594 L 9.03125 23.355469 L 9.816406 23.355469 Z M 9.816406 24.820312 " fill-opacity="1" fill-rule="nonzero"/><path fill="#3ca638" d="M 12.515625 25.804688 L 12.515625 24.921875 C 12.515625 24.8125 12.519531 24.703125 12.527344 24.585938 C 12.539062 24.472656 12.546875 24.375 12.554688 24.296875 C 12.566406 24.21875 12.570312 24.167969 12.574219 24.148438 L 12.558594 24.148438 L 12.105469 25.804688 L 11.492188 25.804688 L 11.039062 24.152344 L 11.023438 24.152344 C 11.023438 24.171875 11.03125 24.222656 11.042969 24.296875 C 11.054688 24.375 11.0625 24.472656 11.074219 24.585938 C 11.082031 24.703125 11.085938 24.8125 11.085938 24.921875 L 11.085938 25.804688 L 10.363281 25.804688 L 10.363281 23.355469 L 11.476562 23.355469 L 11.84375 24.769531 L 11.859375 24.769531 L 12.222656 23.355469 L 13.296875 23.355469 L 13.296875 25.804688 Z M 12.515625 25.804688 " fill-opacity="1" fill-rule="nonzero"/><path fill="#3ca638" d="M 13.878906 23.355469 L 14.664062 23.355469 L 14.664062 25.804688 L 13.878906 25.804688 Z M 13.878906 23.355469 " fill-opacity="1" fill-rule="nonzero"/><path fill="#3ca638" d="M 17.046875 25.804688 L 16.019531 24.617188 L 16.019531 25.804688 L 15.296875 25.804688 L 15.296875 23.355469 L 15.984375 23.355469 L 17.011719 24.5625 L 17.011719 23.355469 L 17.734375 23.355469 L 17.734375 25.804688 Z M 17.046875 25.804688 " fill-opacity="1" fill-rule="nonzero"/><path fill="#3ca638" d="M 19.546875 23.316406 C 19.96875 23.316406 20.296875 23.421875 20.523438 23.640625 C 20.753906 23.855469 20.871094 24.167969 20.871094 24.582031 C 20.871094 24.996094 20.753906 25.308594 20.523438 25.523438 C 20.296875 25.738281 19.96875 25.847656 19.546875 25.847656 C 19.125 25.847656 18.800781 25.742188 18.570312 25.523438 C 18.34375 25.3125 18.226562 24.996094 18.226562 24.582031 C 18.226562 24.167969 18.34375 23.851562 18.570312 23.636719 C 18.800781 23.421875 19.125 23.316406 19.546875 23.316406 Z M 19.546875 23.902344 C 19.378906 23.902344 19.25 23.953125 19.164062 24.054688 C 19.074219 24.15625 19.03125 24.292969 19.03125 24.46875 L 19.03125 24.695312 C 19.03125 24.867188 19.074219 25.003906 19.164062 25.109375 C 19.25 25.210938 19.378906 25.261719 19.546875 25.261719 C 19.714844 25.261719 19.84375 25.210938 19.933594 25.109375 C 20.023438 25.003906 20.066406 24.867188 20.066406 24.695312 L 20.066406 24.46875 C 20.066406 24.292969 20.023438 24.15625 19.933594 24.054688 C 19.84375 23.953125 19.714844 23.902344 19.546875 23.902344 Z M 19.546875 23.902344 " fill-opacity="1" fill-rule="nonzero"/><path fill="#3ca638" d="M 23.800781 24.820312 C 23.800781 25.152344 23.695312 25.40625 23.484375 25.582031 C 23.273438 25.757812 22.972656 25.847656 22.585938 25.847656 C 22.195312 25.847656 21.894531 25.757812 21.683594 25.582031 C 21.472656 25.40625 21.363281 25.152344 21.363281 24.820312 L 21.363281 23.355469 L 22.148438 23.355469 L 22.148438 24.808594 C 22.148438 24.945312 22.1875 25.054688 22.257812 25.136719 C 22.332031 25.21875 22.441406 25.261719 22.582031 25.261719 C 22.71875 25.261719 22.828125 25.21875 22.902344 25.136719 C 22.976562 25.054688 23.015625 24.945312 23.015625 24.808594 L 23.015625 23.355469 L 23.800781 23.355469 Z M 23.800781 24.820312 " fill-opacity="1" fill-rule="nonzero"/><path fill="#3ca638" d="M 24.433594 23.355469 L 25.21875 23.355469 L 25.21875 25.804688 L 24.433594 25.804688 Z M 24.433594 23.355469 " fill-opacity="1" fill-rule="nonzero"/><path fill="#3ca638" d="M 25.851562 23.355469 L 26.636719 23.355469 L 26.636719 25.179688 L 27.894531 25.179688 L 27.894531 25.804688 L 25.851562 25.804688 Z M 25.851562 23.355469 " fill-opacity="1" fill-rule="nonzero"/><path fill="#3ca638" d="M 28.296875 23.355469 L 29.082031 23.355469 L 29.082031 25.179688 L 30.335938 25.179688 L 30.335938 25.804688 L 28.296875 25.804688 Z M 28.296875 23.355469 " fill-opacity="1" fill-rule="nonzero"/><path fill="#3ca638" d="M 30.738281 23.355469 L 32.855469 23.355469 L 32.855469 23.945312 L 31.523438 23.945312 L 31.523438 24.28125 L 32.660156 24.28125 L 32.660156 24.84375 L 31.523438 24.84375 L 31.523438 25.21875 L 32.878906 25.21875 L 32.878906 25.804688 L 30.738281 25.804688 Z M 30.738281 23.355469 " fill-opacity="1" fill-rule="nonzero"/><path fill="#393536" d="M 8.644531 28.867188 L 8.644531 27.347656 L 9.199219 27.347656 C 9.300781 27.347656 9.382812 27.363281 9.453125 27.398438 C 9.523438 27.429688 9.574219 27.480469 9.609375 27.539062 C 9.644531 27.601562 9.664062 27.671875 9.664062 27.757812 C 9.664062 27.851562 9.640625 27.929688 9.59375 27.992188 C 9.542969 28.050781 9.472656 28.097656 9.371094 28.128906 L 9.371094 28.148438 C 9.421875 28.167969 9.460938 28.199219 9.492188 28.242188 C 9.523438 28.28125 9.550781 28.34375 9.578125 28.425781 L 9.71875 28.867188 L 9.535156 28.867188 L 9.382812 28.402344 C 9.363281 28.347656 9.34375 28.304688 9.320312 28.273438 C 9.296875 28.242188 9.265625 28.21875 9.230469 28.207031 C 9.195312 28.191406 9.148438 28.183594 9.09375 28.183594 L 8.824219 28.183594 L 8.824219 28.867188 Z M 9.191406 28.03125 C 9.289062 28.03125 9.359375 28.011719 9.40625 27.96875 C 9.453125 27.921875 9.476562 27.855469 9.476562 27.765625 C 9.476562 27.675781 9.453125 27.609375 9.40625 27.566406 C 9.359375 27.519531 9.289062 27.5 9.191406 27.5 L 8.824219 27.5 L 8.824219 28.03125 Z M 9.191406 28.03125 " fill-opacity="1" fill-rule="nonzero"/><path fill="#393536" d="M 10.726562 28.148438 L 10.726562 28.71875 L 11.5 28.71875 L 11.5 28.867188 L 10.546875 28.867188 L 10.546875 27.347656 L 11.484375 27.347656 L 11.484375 27.492188 L 10.726562 27.492188 L 10.726562 28.003906 L 11.394531 28.003906 L 11.394531 28.148438 Z M 10.726562 28.148438 " fill-opacity="1" fill-rule="nonzero"/><path fill="#393536" d="M 12.761719 28.886719 C 12.664062 28.886719 12.578125 28.875 12.503906 28.847656 C 12.425781 28.824219 12.363281 28.789062 12.3125 28.746094 C 12.261719 28.703125 12.222656 28.65625 12.199219 28.605469 L 12.296875 28.488281 L 12.324219 28.488281 C 12.417969 28.648438 12.5625 28.726562 12.761719 28.726562 C 12.875 28.726562 12.957031 28.703125 13.015625 28.65625 C 13.070312 28.609375 13.097656 28.542969 13.097656 28.457031 C 13.097656 28.40625 13.089844 28.363281 13.070312 28.328125 C 13.054688 28.296875 13.023438 28.265625 12.980469 28.242188 C 12.9375 28.214844 12.878906 28.195312 12.808594 28.175781 L 12.628906 28.132812 C 12.496094 28.101562 12.398438 28.050781 12.335938 27.980469 C 12.273438 27.910156 12.242188 27.820312 12.242188 27.714844 C 12.242188 27.640625 12.261719 27.574219 12.300781 27.515625 C 12.339844 27.453125 12.398438 27.410156 12.472656 27.375 C 12.546875 27.339844 12.636719 27.324219 12.738281 27.324219 C 12.855469 27.324219 12.949219 27.339844 13.027344 27.375 C 13.105469 27.40625 13.171875 27.453125 13.21875 27.515625 L 13.132812 27.636719 L 13.105469 27.636719 C 13.0625 27.582031 13.007812 27.542969 12.949219 27.519531 C 12.890625 27.492188 12.820312 27.480469 12.738281 27.480469 C 12.636719 27.480469 12.554688 27.5 12.5 27.542969 C 12.449219 27.582031 12.421875 27.640625 12.421875 27.710938 C 12.421875 27.78125 12.441406 27.835938 12.480469 27.875 C 12.519531 27.914062 12.585938 27.945312 12.679688 27.96875 L 12.863281 28.011719 C 13.011719 28.046875 13.117188 28.101562 13.183594 28.171875 C 13.246094 28.246094 13.28125 28.335938 13.28125 28.445312 C 13.28125 28.535156 13.261719 28.609375 13.222656 28.675781 C 13.1875 28.742188 13.128906 28.792969 13.046875 28.832031 C 12.96875 28.871094 12.875 28.886719 12.761719 28.886719 Z M 12.761719 28.886719 " fill-opacity="1" fill-rule="nonzero"/><path fill="#393536" d="M 15.078125 27.347656 L 15.078125 27.5 L 14.601562 27.5 L 14.601562 28.867188 L 14.425781 28.867188 L 14.425781 27.5 L 13.949219 27.5 L 13.949219 27.347656 Z M 15.078125 27.347656 " fill-opacity="1" fill-rule="nonzero"/><path fill="#393536" d="M 16.996094 28.867188 L 16.804688 28.867188 L 16.664062 28.449219 L 16.015625 28.449219 L 15.875 28.867188 L 15.6875 28.867188 L 16.21875 27.347656 L 16.464844 27.347656 Z M 16.328125 27.53125 L 16.066406 28.300781 L 16.613281 28.300781 L 16.355469 27.53125 Z M 16.328125 27.53125 " fill-opacity="1" fill-rule="nonzero"/><path fill="#393536" d="M 18.332031 28.886719 C 18.148438 28.886719 18.007812 28.839844 17.910156 28.746094 C 17.816406 28.652344 17.765625 28.511719 17.765625 28.324219 L 17.765625 27.347656 L 17.945312 27.347656 L 17.945312 28.324219 C 17.945312 28.457031 17.976562 28.554688 18.039062 28.621094 C 18.105469 28.691406 18.203125 28.722656 18.332031 28.722656 C 18.59375 28.722656 18.722656 28.589844 18.722656 28.324219 L 18.722656 27.347656 L 18.902344 27.347656 L 18.902344 28.324219 C 18.902344 28.511719 18.851562 28.652344 18.757812 28.746094 C 18.660156 28.839844 18.519531 28.886719 18.332031 28.886719 Z M 18.332031 28.886719 " fill-opacity="1" fill-rule="nonzero"/><path fill="#393536" d="M 19.839844 28.867188 L 19.839844 27.347656 L 20.394531 27.347656 C 20.496094 27.347656 20.578125 27.363281 20.648438 27.398438 C 20.71875 27.429688 20.769531 27.480469 20.804688 27.539062 C 20.839844 27.601562 20.859375 27.671875 20.859375 27.757812 C 20.859375 27.851562 20.835938 27.929688 20.789062 27.992188 C 20.738281 28.050781 20.667969 28.097656 20.566406 28.128906 L 20.566406 28.148438 C 20.617188 28.167969 20.65625 28.199219 20.6875 28.242188 C 20.71875 28.28125 20.746094 28.34375 20.773438 28.425781 L 20.914062 28.867188 L 20.730469 28.867188 L 20.578125 28.402344 C 20.558594 28.347656 20.539062 28.304688 20.515625 28.273438 C 20.492188 28.242188 20.460938 28.21875 20.425781 28.207031 C 20.390625 28.191406 20.34375 28.183594 20.289062 28.183594 L 20.019531 28.183594 L 20.019531 28.867188 Z M 20.386719 28.03125 C 20.484375 28.03125 20.554688 28.011719 20.601562 27.96875 C 20.648438 27.921875 20.671875 27.855469 20.671875 27.765625 C 20.671875 27.675781 20.648438 27.609375 20.601562 27.566406 C 20.554688 27.519531 20.484375 27.5 20.386719 27.5 L 20.019531 27.5 L 20.019531 28.03125 Z M 20.386719 28.03125 " fill-opacity="1" fill-rule="nonzero"/><path fill="#393536" d="M 22.878906 28.867188 L 22.6875 28.867188 L 22.546875 28.449219 L 21.902344 28.449219 L 21.757812 28.867188 L 21.574219 28.867188 L 22.101562 27.347656 L 22.351562 27.347656 Z M 22.210938 27.53125 L 21.953125 28.300781 L 22.496094 28.300781 L 22.238281 27.53125 Z M 22.210938 27.53125 " fill-opacity="1" fill-rule="nonzero"/><path fill="#393536" d="M 23.839844 28.867188 L 23.664062 28.867188 L 23.664062 27.347656 L 23.882812 27.347656 L 24.625 28.507812 L 24.652344 28.503906 L 24.652344 27.347656 L 24.824219 27.347656 L 24.824219 28.867188 L 24.636719 28.867188 L 23.867188 27.625 L 23.839844 27.628906 Z M 23.839844 28.867188 " fill-opacity="1" fill-rule="nonzero"/><path fill="#393536" d="M 26.734375 27.347656 L 26.734375 27.5 L 26.261719 27.5 L 26.261719 28.867188 L 26.082031 28.867188 L 26.082031 27.5 L 25.605469 27.5 L 25.605469 27.347656 Z M 26.734375 27.347656 " fill-opacity="1" fill-rule="nonzero"/><path fill="#393536" d="M 27.949219 28.886719 C 27.855469 28.886719 27.769531 28.875 27.691406 28.847656 C 27.617188 28.824219 27.550781 28.789062 27.503906 28.746094 C 27.453125 28.703125 27.414062 28.65625 27.386719 28.605469 L 27.488281 28.488281 L 27.511719 28.488281 C 27.605469 28.648438 27.753906 28.726562 27.949219 28.726562 C 28.0625 28.726562 28.148438 28.703125 28.203125 28.65625 C 28.261719 28.609375 28.289062 28.542969 28.289062 28.457031 C 28.289062 28.40625 28.28125 28.363281 28.261719 28.328125 C 28.242188 28.296875 28.210938 28.265625 28.171875 28.242188 C 28.128906 28.214844 28.070312 28.195312 27.996094 28.175781 L 27.820312 28.132812 C 27.6875 28.101562 27.589844 28.050781 27.527344 27.980469 C 27.464844 27.910156 27.433594 27.820312 27.433594 27.714844 C 27.433594 27.640625 27.453125 27.574219 27.492188 27.515625 C 27.527344 27.453125 27.585938 27.410156 27.660156 27.375 C 27.734375 27.339844 27.824219 27.324219 27.929688 27.324219 C 28.042969 27.324219 28.140625 27.339844 28.21875 27.375 C 28.296875 27.40625 28.359375 27.453125 28.40625 27.515625 L 28.320312 27.636719 L 28.296875 27.636719 C 28.25 27.582031 28.199219 27.542969 28.140625 27.519531 C 28.078125 27.492188 28.011719 27.480469 27.929688 27.480469 C 27.824219 27.480469 27.746094 27.5 27.691406 27.542969 C 27.636719 27.582031 27.609375 27.640625 27.609375 27.710938 C 27.609375 27.78125 27.628906 27.835938 27.667969 27.875 C 27.710938 27.914062 27.777344 27.945312 27.871094 27.96875 L 28.050781 28.011719 C 28.199219 28.046875 28.304688 28.101562 28.371094 28.171875 C 28.4375 28.246094 28.472656 28.335938 28.472656 28.445312 C 28.472656 28.535156 28.453125 28.609375 28.414062 28.675781 C 28.375 28.742188 28.316406 28.792969 28.238281 28.832031 C 28.160156 28.871094 28.0625 28.886719 27.949219 28.886719 Z M 27.949219 28.886719 " fill-opacity="1" fill-rule="nonzero"/></svg>