<svg xmlns="http://www.w3.org/2000/svg" xmlns:xlink="http://www.w3.org/1999/xlink" width="500" zoomAndPan="magnify" viewBox="0 0 375 374.999991" height="500" preserveAspectRatio="xMidYMid meet" version="1.0"><defs><g/><clipPath id="4573a8d189"><path d="M 166 56.84375 L 233 56.84375 L 233 139 L 166 139 Z M 166 56.84375 " clip-rule="nonzero"/></clipPath><clipPath id="91665d0fc3"><path d="M 108 121 L 266.980469 121 L 266.980469 211.34375 L 108 211.34375 Z M 108 121 " clip-rule="nonzero"/></clipPath><clipPath id="fed57fafd0"><path d="M 107.574219 201.828125 L 267.5 201.828125 L 267.5 220.792969 L 107.574219 220.792969 Z M 107.574219 201.828125 " clip-rule="nonzero"/></clipPath><clipPath id="80163ffa9e"><path d="M 187.5 201.828125 C 143.355469 201.828125 107.574219 206.074219 107.574219 211.308594 C 107.574219 216.546875 143.355469 220.792969 187.5 220.792969 C 231.644531 220.792969 267.425781 216.546875 267.425781 211.308594 C 267.425781 206.074219 231.644531 201.828125 187.5 201.828125 Z M 187.5 201.828125 " clip-rule="nonzero"/></clipPath></defs><g clip-path="url(#4573a8d189)"><path fill="#4f4c4c" d="M 180.191406 56.875 C 180.140625 56.878906 180.046875 56.878906 179.996094 56.875 C 175.808594 56.835938 172.152344 62.332031 169.878906 68.320312 C 167.570312 74.417969 166.648438 80.96875 167.105469 85.429688 C 167.753906 91.449219 170.464844 94.699219 173.988281 97.304688 C 176.683594 99.160156 178.226562 104.027344 178.042969 109.054688 C 177.6875 118.945312 177.285156 128.769531 176.75 138.472656 C 178.625 136.050781 180.703125 133.664062 183.070312 131.339844 C 182.707031 123.964844 182.414062 116.53125 182.144531 109.054688 C 181.960938 104.027344 183.507812 99.160156 186.199219 97.304688 C 189.726562 94.699219 192.4375 91.449219 193.082031 85.429688 C 193.539062 80.96875 192.621094 74.417969 190.308594 68.320312 C 188.039062 62.332031 184.378906 56.835938 180.191406 56.875 Z M 231.433594 57.949219 C 231.367188 57.335938 230.851562 56.875 230.238281 56.875 C 229.570312 56.875 229.03125 57.417969 229.03125 58.082031 L 229.03125 87.296875 C 229.03125 87.902344 228.625 88.457031 228.027344 88.582031 C 227.210938 88.753906 226.484375 88.125 226.484375 87.339844 L 226.484375 58.082031 C 226.484375 57.417969 225.945312 56.875 225.277344 56.875 L 224.398438 56.875 C 223.730469 56.875 223.191406 57.417969 223.191406 58.082031 L 223.191406 87.296875 C 223.191406 87.902344 222.78125 88.457031 222.1875 88.582031 C 221.371094 88.753906 220.644531 88.125 220.644531 87.339844 L 220.644531 58.082031 C 220.644531 57.417969 220.101562 56.875 219.4375 56.875 L 218.554688 56.875 C 217.890625 56.875 217.351562 57.417969 217.351562 58.082031 L 217.351562 87.296875 C 217.351562 87.902344 216.941406 88.457031 216.347656 88.582031 C 215.53125 88.753906 214.804688 88.125 214.804688 87.339844 L 214.804688 58.082031 C 214.804688 57.417969 214.261719 56.875 213.597656 56.875 L 212.714844 56.875 C 212.050781 56.875 211.511719 57.417969 211.511719 58.082031 L 211.511719 87.296875 C 211.511719 87.902344 211.101562 88.457031 210.507812 88.582031 C 209.691406 88.753906 208.964844 88.125 208.964844 87.339844 L 208.964844 58.082031 C 208.964844 57.417969 208.425781 56.875 207.757812 56.875 C 207.144531 56.875 206.625 57.335938 206.558594 57.949219 C 205.9375 63.660156 205.75 82.910156 206.011719 85.429688 C 206.65625 91.449219 209.367188 94.699219 212.890625 97.304688 C 215.585938 99.160156 217.132812 104.027344 216.945312 109.054688 C 216.917969 109.859375 216.886719 110.65625 216.859375 111.457031 C 218.316406 110.816406 219.71875 110.175781 221.066406 109.539062 C 221.058594 109.378906 221.054688 109.21875 221.046875 109.054688 C 220.863281 104.027344 222.410156 99.160156 225.105469 97.304688 C 228.628906 94.699219 231.339844 91.449219 231.984375 85.429688 C 232.242188 82.910156 232.058594 63.660156 231.433594 57.949219 " fill-opacity="1" fill-rule="nonzero"/></g><path fill="#80cc28" d="M 236.84375 118.015625 C 236.84375 118.015625 218.964844 164.148438 154.136719 179.457031 C 173.179688 158.1875 171.871094 132.8125 212.359375 116.773438 C 233.054688 108.574219 244.953125 99.292969 244.953125 99.292969 C 244.953125 99.292969 244.414062 199.410156 174.339844 179.898438 C 174.339844 179.898438 219.78125 170.171875 236.84375 118.015625 " fill-opacity="1" fill-rule="nonzero"/><path fill="#40b93c" d="M 135.320312 91.527344 C 135.320312 91.527344 136.589844 122.199219 171.59375 144.171875 C 164.667969 127.867188 170.515625 113.226562 149.949219 95.699219 C 139.433594 86.742188 134.304688 78.910156 134.304688 78.910156 C 134.304688 78.910156 114.589844 137.808594 159.644531 140.386719 C 159.644531 140.386719 134.90625 125.574219 135.320312 91.527344 " fill-opacity="1" fill-rule="nonzero"/><g clip-path="url(#91665d0fc3)"><path fill="#393536" d="M 224.445312 200.132812 L 224.417969 200.105469 L 224.476562 200.160156 C 224.464844 200.15625 224.492188 200.171875 224.445312 200.132812 Z M 150.480469 200.148438 L 150.550781 200.082031 L 150.507812 200.125 C 150.460938 200.164062 150.488281 200.148438 150.480469 200.148438 Z M 266.628906 121.472656 C 266.386719 123.347656 266.167969 125.210938 265.953125 127.066406 C 265.648438 128.914062 265.261719 130.742188 264.953125 132.570312 C 264.578125 134.390625 264.0625 136.183594 263.625 137.976562 C 263.429688 138.878906 263.074219 139.742188 262.804688 140.625 C 262.507812 141.5 262.242188 142.378906 261.960938 143.257812 C 261.714844 144.140625 261.324219 144.980469 260.996094 145.839844 L 259.984375 148.398438 C 259.675781 149.257812 259.238281 150.070312 258.851562 150.898438 L 257.664062 153.371094 C 257.296875 154.207031 256.800781 154.980469 256.367188 155.777344 L 255.039062 158.164062 C 254.625 158.972656 254.089844 159.710938 253.601562 160.476562 L 252.117188 162.753906 C 251.648438 163.527344 251.070312 164.230469 250.539062 164.960938 L 248.921875 167.136719 C 248.410156 167.878906 247.769531 168.527344 247.195312 169.222656 L 245.441406 171.273438 C 244.25 172.621094 242.949219 173.871094 241.71875 175.171875 C 240.429688 176.417969 239.058594 177.578125 237.742188 178.789062 C 236.375 179.941406 234.941406 181.015625 233.554688 182.136719 C 232.105469 183.175781 230.613281 184.15625 229.152344 185.167969 L 224.570312 187.902344 L 219.820312 190.300781 L 210.390625 195.0625 L 220.496094 198.335938 L 220.589844 198.367188 C 219.816406 198.589844 219.003906 198.792969 218.191406 198.972656 C 216.28125 199.414062 214.285156 199.753906 212.273438 200.046875 C 208.238281 200.628906 204.105469 200.984375 199.964844 201.242188 C 197.890625 201.363281 195.8125 201.457031 193.730469 201.511719 C 191.628906 201.570312 189.625 201.585938 187.453125 201.589844 C 185.417969 201.59375 183.300781 201.570312 181.230469 201.515625 C 179.148438 201.460938 177.066406 201.367188 174.996094 201.242188 C 170.855469 200.984375 166.722656 200.640625 162.6875 200.054688 C 160.675781 199.761719 158.675781 199.421875 156.765625 198.980469 C 155.941406 198.796875 155.113281 198.59375 154.328125 198.367188 L 154.460938 198.324219 L 164.535156 195.0625 L 155.132812 190.3125 L 150.382812 187.910156 L 145.796875 185.179688 C 144.335938 184.167969 142.847656 183.183594 141.398438 182.144531 C 140.007812 181.027344 138.582031 179.949219 137.207031 178.796875 C 135.890625 177.59375 134.519531 176.433594 133.234375 175.179688 C 132 173.878906 130.699219 172.632812 129.507812 171.285156 L 127.75 169.230469 C 127.179688 168.535156 126.539062 167.886719 126.027344 167.144531 L 124.410156 164.96875 C 123.882812 164.238281 123.300781 163.535156 122.832031 162.761719 L 121.347656 160.484375 C 120.859375 159.71875 120.324219 158.976562 119.910156 158.167969 L 118.582031 155.785156 C 118.144531 154.984375 117.652344 154.210938 117.285156 153.375 L 116.101562 150.902344 C 115.710938 150.074219 115.273438 149.261719 114.96875 148.402344 L 113.953125 145.84375 C 113.625 144.984375 113.238281 144.144531 112.988281 143.257812 L 112.144531 140.628906 C 111.875 139.746094 111.519531 138.878906 111.324219 137.976562 C 110.890625 136.183594 110.378906 134.390625 110 132.574219 C 109.699219 130.753906 109.308594 128.933594 109.003906 127.078125 C 108.789062 125.210938 108.574219 123.339844 108.328125 121.472656 C 108.21875 123.355469 108.136719 125.234375 108.054688 127.113281 C 108.0625 128.996094 108.140625 130.902344 108.214844 132.816406 C 108.34375 134.714844 108.609375 136.597656 108.804688 138.503906 C 108.882812 139.457031 109.121094 140.382812 109.273438 141.328125 L 109.816406 144.152344 C 109.972656 145.101562 110.269531 146.011719 110.507812 146.945312 L 111.261719 149.726562 C 111.484375 150.667969 111.839844 151.5625 112.144531 152.476562 L 113.097656 155.210938 C 113.734375 157.039062 114.585938 158.777344 115.34375 160.5625 C 115.707031 161.464844 116.195312 162.304688 116.632812 163.167969 L 117.984375 165.75 C 118.40625 166.628906 118.96875 167.421875 119.46875 168.257812 L 121.015625 170.738281 C 121.503906 171.585938 122.125 172.339844 122.679688 173.140625 L 124.394531 175.515625 C 125.582031 177.070312 126.890625 178.523438 128.140625 180.035156 C 129.445312 181.496094 130.84375 182.867188 132.199219 184.292969 C 133.621094 185.648438 135.117188 186.921875 136.582031 188.238281 C 138.109375 189.476562 139.6875 190.660156 141.242188 191.871094 C 142.214844 192.546875 143.203125 193.199219 144.195312 193.851562 C 144.09375 193.949219 143.992188 194.054688 143.878906 194.179688 C 143.675781 194.414062 143.480469 194.628906 143.269531 194.949219 C 143.167969 195.097656 143.066406 195.246094 142.972656 195.398438 C 142.871094 195.582031 142.777344 195.773438 142.6875 195.960938 C 142.503906 196.316406 142.355469 196.804688 142.242188 197.261719 C 142.191406 197.492188 142.160156 197.757812 142.136719 198.007812 L 142.109375 198.390625 L 142.105469 198.484375 C 142.09375 198.402344 142.171875 199.613281 142.140625 199.109375 L 142.148438 199.160156 L 142.167969 199.359375 L 142.179688 199.457031 L 142.191406 199.519531 L 142.234375 199.746094 C 142.355469 200.335938 142.59375 201 142.84375 201.46875 C 143.023438 201.785156 143.222656 202.097656 143.433594 202.398438 C 143.640625 202.679688 143.824219 202.867188 144.03125 203.097656 C 144.128906 203.203125 144.238281 203.320312 144.335938 203.414062 L 144.609375 203.660156 C 144.796875 203.820312 144.992188 203.984375 145.175781 204.132812 L 145.699219 204.5 C 146.398438 204.980469 147.03125 205.320312 147.65625 205.628906 C 150.121094 206.808594 152.351562 207.445312 154.597656 208.035156 C 156.835938 208.59375 159.042969 209.015625 161.242188 209.378906 C 165.640625 210.089844 170.011719 210.585938 174.382812 210.863281 C 176.566406 211.007812 178.753906 211.117188 180.933594 211.191406 C 183.125 211.261719 185.273438 211.304688 187.503906 211.3125 C 189.601562 211.308594 191.863281 211.265625 194.027344 211.195312 C 196.207031 211.121094 198.394531 211.011719 200.578125 210.867188 C 204.949219 210.589844 209.320312 210.101562 213.71875 209.386719 C 215.921875 209.019531 218.125 208.601562 220.363281 208.039062 C 222.609375 207.460938 224.839844 206.816406 227.308594 205.636719 C 227.933594 205.328125 228.570312 204.988281 229.269531 204.507812 L 229.789062 204.140625 C 229.976562 203.992188 230.171875 203.828125 230.355469 203.667969 L 230.632812 203.421875 C 230.730469 203.328125 230.835938 203.210938 230.9375 203.105469 C 231.144531 202.875 231.324219 202.6875 231.535156 202.402344 C 231.746094 202.105469 231.945312 201.792969 232.125 201.476562 C 232.316406 201.101562 232.488281 200.660156 232.621094 200.242188 C 232.753906 199.804688 232.824219 199.261719 232.855469 198.769531 L 232.863281 198.582031 C 232.882812 198.929688 232.84375 197.996094 232.84375 198.085938 L 232.84375 198.0625 L 232.832031 197.964844 L 232.820312 197.863281 L 232.789062 197.632812 C 232.699219 197.011719 232.4375 196.230469 232.285156 195.957031 C 232.195312 195.765625 232.097656 195.578125 231.996094 195.394531 C 231.902344 195.242188 231.800781 195.089844 231.699219 194.941406 C 231.488281 194.621094 231.292969 194.40625 231.085938 194.171875 C 230.980469 194.046875 230.878906 193.949219 230.785156 193.855469 C 231.773438 193.207031 232.757812 192.558594 233.726562 191.882812 C 235.28125 190.671875 236.859375 189.488281 238.386719 188.25 C 239.851562 186.933594 241.347656 185.65625 242.769531 184.304688 C 244.125 182.882812 245.527344 181.507812 246.832031 180.046875 C 248.078125 178.535156 249.390625 177.078125 250.574219 175.523438 L 252.289062 173.152344 C 252.84375 172.347656 253.464844 171.59375 253.957031 170.75 L 255.5 168.265625 C 256.003906 167.429688 256.5625 166.636719 256.988281 165.757812 L 258.335938 163.171875 C 258.777344 162.308594 259.265625 161.46875 259.628906 160.566406 L 260.792969 157.90625 C 261.171875 157.015625 261.582031 156.144531 261.875 155.214844 L 262.824219 152.480469 C 263.128906 151.566406 263.484375 150.671875 263.707031 149.730469 L 264.460938 146.945312 C 264.699219 146.015625 264.996094 145.105469 265.152344 144.152344 C 265.507812 142.265625 265.921875 140.398438 266.160156 138.503906 C 266.355469 136.597656 266.621094 134.710938 266.75 132.816406 C 266.824219 130.914062 266.902344 129.019531 266.90625 127.128906 C 266.824219 125.234375 266.742188 123.347656 266.628906 121.472656 " fill-opacity="1" fill-rule="nonzero"/></g><g clip-path="url(#fed57fafd0)"><g clip-path="url(#80163ffa9e)"><path fill="#393536" d="M 107.574219 201.828125 L 267.425781 201.828125 L 267.425781 220.792969 L 107.574219 220.792969 Z M 107.574219 201.828125 " fill-opacity="1" fill-rule="nonzero"/></g></g><g fill="#3ca638" fill-opacity="1"><g transform="translate(43.381467, 261.484891)"><g><path d="M 18.046875 0 L 10.09375 0 L 10.09375 -9.625 L 0.25 -24.796875 L 9.40625 -24.796875 L 14.15625 -16.53125 L 14.296875 -16.53125 L 19.0625 -24.796875 L 27.75 -24.796875 L 18.046875 -9.625 Z M 18.046875 0 "/></g></g></g><g fill="#3ca638" fill-opacity="1"><g transform="translate(72.137599, 261.484891)"><g><path d="M 27.34375 -9.984375 C 27.34375 -6.597656 26.273438 -4.015625 24.140625 -2.234375 C 22.003906 -0.453125 18.96875 0.4375 15.03125 0.4375 C 11.082031 0.4375 8.035156 -0.453125 5.890625 -2.234375 C 3.742188 -4.015625 2.671875 -6.597656 2.671875 -9.984375 L 2.671875 -24.796875 L 10.625 -24.796875 L 10.625 -10.09375 C 10.625 -8.695312 10.992188 -7.582031 11.734375 -6.75 C 12.484375 -5.925781 13.566406 -5.515625 14.984375 -5.515625 C 16.398438 -5.515625 17.488281 -5.929688 18.25 -6.765625 C 19.007812 -7.609375 19.390625 -8.71875 19.390625 -10.09375 L 19.390625 -24.796875 L 27.34375 -24.796875 Z M 27.34375 -9.984375 "/></g></g></g><g fill="#3ca638" fill-opacity="1"><g transform="translate(102.875663, 261.484891)"><g><path d="M 23.953125 0 L 23.953125 -8.9375 C 23.953125 -10.039062 23.992188 -11.175781 24.078125 -12.34375 C 24.171875 -13.507812 24.265625 -14.488281 24.359375 -15.28125 C 24.453125 -16.070312 24.507812 -16.578125 24.53125 -16.796875 L 24.390625 -16.796875 L 19.8125 0 L 13.578125 0 L 8.96875 -16.75 L 8.828125 -16.75 C 8.847656 -16.539062 8.910156 -16.046875 9.015625 -15.265625 C 9.128906 -14.484375 9.234375 -13.507812 9.328125 -12.34375 C 9.421875 -11.175781 9.46875 -10.039062 9.46875 -8.9375 L 9.46875 0 L 2.15625 0 L 2.15625 -24.796875 L 13.40625 -24.796875 L 17.15625 -10.484375 L 17.296875 -10.484375 L 21 -24.796875 L 31.859375 -24.796875 L 31.859375 0 Z M 23.953125 0 "/></g></g></g><g fill="#3ca638" fill-opacity="1"><g transform="translate(137.613624, 261.484891)"><g><path d="M 3.03125 0 L 3.03125 -24.796875 L 10.984375 -24.796875 L 10.984375 0 Z M 3.03125 0 "/></g></g></g><g fill="#3ca638" fill-opacity="1"><g transform="translate(152.352091, 261.484891)"><g><path d="M 20.390625 0 L 9.984375 -12.03125 L 9.984375 0 L 2.671875 0 L 2.671875 -24.796875 L 9.625 -24.796875 L 20.03125 -12.578125 L 20.03125 -24.796875 L 27.34375 -24.796875 L 27.34375 0 Z M 20.390625 0 "/></g></g></g><g fill="#3ca638" fill-opacity="1"><g transform="translate(183.090153, 261.484891)"><g><path d="M 14.984375 -25.21875 C 19.265625 -25.21875 22.566406 -24.125 24.890625 -21.9375 C 27.222656 -19.757812 28.390625 -16.578125 28.390625 -12.390625 C 28.390625 -8.210938 27.222656 -5.03125 24.890625 -2.84375 C 22.566406 -0.65625 19.265625 0.4375 14.984375 0.4375 C 10.710938 0.4375 7.414062 -0.648438 5.09375 -2.828125 C 2.78125 -5.003906 1.625 -8.191406 1.625 -12.390625 C 1.625 -16.597656 2.78125 -19.785156 5.09375 -21.953125 C 7.414062 -24.128906 10.710938 -25.21875 14.984375 -25.21875 Z M 14.984375 -19.28125 C 13.285156 -19.28125 11.988281 -18.757812 11.09375 -17.71875 C 10.207031 -16.6875 9.765625 -15.296875 9.765625 -13.546875 L 9.765625 -11.234375 C 9.765625 -9.484375 10.207031 -8.09375 11.09375 -7.0625 C 11.988281 -6.03125 13.285156 -5.515625 14.984375 -5.515625 C 16.691406 -5.515625 17.992188 -6.03125 18.890625 -7.0625 C 19.796875 -8.09375 20.25 -9.484375 20.25 -11.234375 L 20.25 -13.546875 C 20.25 -15.296875 19.796875 -16.6875 18.890625 -17.71875 C 17.992188 -18.757812 16.691406 -19.28125 14.984375 -19.28125 Z M 14.984375 -19.28125 "/></g></g></g><g fill="#3ca638" fill-opacity="1"><g transform="translate(213.828215, 261.484891)"><g><path d="M 27.34375 -9.984375 C 27.34375 -6.597656 26.273438 -4.015625 24.140625 -2.234375 C 22.003906 -0.453125 18.96875 0.4375 15.03125 0.4375 C 11.082031 0.4375 8.035156 -0.453125 5.890625 -2.234375 C 3.742188 -4.015625 2.671875 -6.597656 2.671875 -9.984375 L 2.671875 -24.796875 L 10.625 -24.796875 L 10.625 -10.09375 C 10.625 -8.695312 10.992188 -7.582031 11.734375 -6.75 C 12.484375 -5.925781 13.566406 -5.515625 14.984375 -5.515625 C 16.398438 -5.515625 17.488281 -5.929688 18.25 -6.765625 C 19.007812 -7.609375 19.390625 -8.71875 19.390625 -10.09375 L 19.390625 -24.796875 L 27.34375 -24.796875 Z M 27.34375 -9.984375 "/></g></g></g><g fill="#3ca638" fill-opacity="1"><g transform="translate(244.566276, 261.484891)"><g><path d="M 3.03125 0 L 3.03125 -24.796875 L 10.984375 -24.796875 L 10.984375 0 Z M 3.03125 0 "/></g></g></g><g fill="#3ca638" fill-opacity="1"><g transform="translate(259.304755, 261.484891)"><g><path d="M 2.671875 -24.796875 L 10.625 -24.796875 L 10.625 -6.34375 L 23.34375 -6.34375 L 23.34375 0 L 2.671875 0 Z M 2.671875 -24.796875 "/></g></g></g><g fill="#3ca638" fill-opacity="1"><g transform="translate(284.061002, 261.484891)"><g><path d="M 2.671875 -24.796875 L 10.625 -24.796875 L 10.625 -6.34375 L 23.34375 -6.34375 L 23.34375 0 L 2.671875 0 Z M 2.671875 -24.796875 "/></g></g></g><g fill="#3ca638" fill-opacity="1"><g transform="translate(308.817248, 261.484891)"><g><path d="M 2.671875 -24.796875 L 24.109375 -24.796875 L 24.109375 -18.84375 L 10.625 -18.84375 L 10.625 -15.421875 L 22.15625 -15.421875 L 22.15625 -9.734375 L 10.625 -9.734375 L 10.625 -5.9375 L 24.359375 -5.9375 L 24.359375 0 L 2.671875 0 Z M 2.671875 -24.796875 "/></g></g></g><g fill="#393536" fill-opacity="1"><g transform="translate(85.279884, 292.511904)"><g><path d="M 2.328125 0 L 2.328125 -15.40625 L 7.921875 -15.40625 C 8.953125 -15.40625 9.816406 -15.234375 10.515625 -14.890625 C 11.222656 -14.546875 11.753906 -14.0625 12.109375 -13.4375 C 12.460938 -12.820312 12.640625 -12.085938 12.640625 -11.234375 C 12.640625 -10.285156 12.398438 -9.5 11.921875 -8.875 C 11.441406 -8.25 10.695312 -7.785156 9.6875 -7.484375 L 9.6875 -7.265625 C 10.1875 -7.066406 10.59375 -6.753906 10.90625 -6.328125 C 11.21875 -5.910156 11.507812 -5.285156 11.78125 -4.453125 L 13.203125 0 L 11.34375 0 L 9.796875 -4.703125 C 9.617188 -5.265625 9.410156 -5.703125 9.171875 -6.015625 C 8.929688 -6.328125 8.628906 -6.550781 8.265625 -6.6875 C 7.898438 -6.832031 7.4375 -6.90625 6.875 -6.90625 L 4.140625 -6.90625 L 4.140625 0 Z M 7.875 -8.453125 C 8.84375 -8.453125 9.5625 -8.671875 10.03125 -9.109375 C 10.5 -9.554688 10.734375 -10.238281 10.734375 -11.15625 C 10.734375 -12.070312 10.5 -12.75 10.03125 -13.1875 C 9.5625 -13.632812 8.84375 -13.859375 7.875 -13.859375 L 4.140625 -13.859375 L 4.140625 -8.453125 Z M 7.875 -8.453125 "/></g></g></g><g fill="#393536" fill-opacity="1"><g transform="translate(104.550452, 292.511904)"><g><path d="M 4.140625 -7.265625 L 4.140625 -1.5 L 11.984375 -1.5 L 11.984375 0 L 2.328125 0 L 2.328125 -15.40625 L 11.828125 -15.40625 L 11.828125 -13.90625 L 4.140625 -13.90625 L 4.140625 -8.75 L 10.921875 -8.75 L 10.921875 -7.265625 Z M 4.140625 -7.265625 "/></g></g></g><g fill="#393536" fill-opacity="1"><g transform="translate(122.567445, 292.511904)"><g><path d="M 6.734375 0.21875 C 5.765625 0.21875 4.894531 0.0859375 4.125 -0.171875 C 3.351562 -0.429688 2.710938 -0.773438 2.203125 -1.203125 C 1.691406 -1.640625 1.304688 -2.113281 1.046875 -2.625 L 2.046875 -3.828125 L 2.3125 -3.828125 C 3.257812 -2.210938 4.734375 -1.40625 6.734375 -1.40625 C 7.890625 -1.40625 8.75 -1.644531 9.3125 -2.125 C 9.882812 -2.613281 10.171875 -3.289062 10.171875 -4.15625 C 10.171875 -4.664062 10.078125 -5.09375 9.890625 -5.4375 C 9.703125 -5.789062 9.394531 -6.09375 8.96875 -6.34375 C 8.539062 -6.59375 7.957031 -6.8125 7.21875 -7 L 5.421875 -7.4375 C 4.078125 -7.757812 3.085938 -8.273438 2.453125 -8.984375 C 1.816406 -9.691406 1.5 -10.582031 1.5 -11.65625 C 1.5 -12.425781 1.691406 -13.109375 2.078125 -13.703125 C 2.472656 -14.304688 3.050781 -14.773438 3.8125 -15.109375 C 4.570312 -15.453125 5.476562 -15.625 6.53125 -15.625 C 7.6875 -15.625 8.660156 -15.457031 9.453125 -15.125 C 10.253906 -14.800781 10.894531 -14.316406 11.375 -13.671875 L 10.5 -12.46875 L 10.234375 -12.46875 C 9.785156 -13.007812 9.257812 -13.40625 8.65625 -13.65625 C 8.050781 -13.914062 7.34375 -14.046875 6.53125 -14.046875 C 5.46875 -14.046875 4.660156 -13.835938 4.109375 -13.421875 C 3.566406 -13.003906 3.296875 -12.429688 3.296875 -11.703125 C 3.296875 -11.003906 3.492188 -10.453125 3.890625 -10.046875 C 4.296875 -9.640625 4.972656 -9.320312 5.921875 -9.09375 L 7.765625 -8.65625 C 9.265625 -8.300781 10.347656 -7.757812 11.015625 -7.03125 C 11.679688 -6.300781 12.015625 -5.375 12.015625 -4.25 C 12.015625 -3.375 11.820312 -2.597656 11.4375 -1.921875 C 11.050781 -1.253906 10.457031 -0.726562 9.65625 -0.34375 C 8.863281 0.03125 7.890625 0.21875 6.734375 0.21875 Z M 6.734375 0.21875 "/></g></g></g><g fill="#393536" fill-opacity="1"><g transform="translate(140.774056, 292.511904)"><g><path d="M 12.015625 -15.40625 L 12.015625 -13.859375 L 7.203125 -13.859375 L 7.203125 0 L 5.390625 0 L 5.390625 -13.859375 L 0.5625 -13.859375 L 0.5625 -15.40625 Z M 12.015625 -15.40625 "/></g></g></g><g fill="#393536" fill-opacity="1"><g transform="translate(158.359137, 292.511904)"><g><path d="M 13.859375 0 L 11.921875 0 L 10.5 -4.21875 L 3.9375 -4.21875 L 2.5 0 L 0.609375 0 L 5.984375 -15.40625 L 8.484375 -15.40625 Z M 7.09375 -13.53125 L 4.453125 -5.75 L 9.984375 -5.75 L 7.359375 -13.53125 Z M 7.09375 -13.53125 "/></g></g></g><g fill="#393536" fill-opacity="1"><g transform="translate(177.84039, 292.511904)"><g><path d="M 7.9375 0.21875 C 6.050781 0.21875 4.625 -0.257812 3.65625 -1.21875 C 2.6875 -2.175781 2.203125 -3.597656 2.203125 -5.484375 L 2.203125 -15.40625 L 4 -15.40625 L 4 -5.5 C 4 -4.15625 4.320312 -3.144531 4.96875 -2.46875 C 5.625 -1.789062 6.613281 -1.453125 7.9375 -1.453125 C 10.570312 -1.453125 11.890625 -2.800781 11.890625 -5.5 L 11.890625 -15.40625 L 13.6875 -15.40625 L 13.6875 -5.484375 C 13.6875 -3.597656 13.203125 -2.175781 12.234375 -1.21875 C 11.265625 -0.257812 9.832031 0.21875 7.9375 0.21875 Z M 7.9375 0.21875 "/></g></g></g><g fill="#393536" fill-opacity="1"><g transform="translate(198.722709, 292.511904)"><g><path d="M 2.328125 0 L 2.328125 -15.40625 L 7.921875 -15.40625 C 8.953125 -15.40625 9.816406 -15.234375 10.515625 -14.890625 C 11.222656 -14.546875 11.753906 -14.0625 12.109375 -13.4375 C 12.460938 -12.820312 12.640625 -12.085938 12.640625 -11.234375 C 12.640625 -10.285156 12.398438 -9.5 11.921875 -8.875 C 11.441406 -8.25 10.695312 -7.785156 9.6875 -7.484375 L 9.6875 -7.265625 C 10.1875 -7.066406 10.59375 -6.753906 10.90625 -6.328125 C 11.21875 -5.910156 11.507812 -5.285156 11.78125 -4.453125 L 13.203125 0 L 11.34375 0 L 9.796875 -4.703125 C 9.617188 -5.265625 9.410156 -5.703125 9.171875 -6.015625 C 8.929688 -6.328125 8.628906 -6.550781 8.265625 -6.6875 C 7.898438 -6.832031 7.4375 -6.90625 6.875 -6.90625 L 4.140625 -6.90625 L 4.140625 0 Z M 7.875 -8.453125 C 8.84375 -8.453125 9.5625 -8.671875 10.03125 -9.109375 C 10.5 -9.554688 10.734375 -10.238281 10.734375 -11.15625 C 10.734375 -12.070312 10.5 -12.75 10.03125 -13.1875 C 9.5625 -13.632812 8.84375 -13.859375 7.875 -13.859375 L 4.140625 -13.859375 L 4.140625 -8.453125 Z M 7.875 -8.453125 "/></g></g></g><g fill="#393536" fill-opacity="1"><g transform="translate(217.993277, 292.511904)"><g><path d="M 13.859375 0 L 11.921875 0 L 10.5 -4.21875 L 3.9375 -4.21875 L 2.5 0 L 0.609375 0 L 5.984375 -15.40625 L 8.484375 -15.40625 Z M 7.09375 -13.53125 L 4.453125 -5.75 L 9.984375 -5.75 L 7.359375 -13.53125 Z M 7.09375 -13.53125 "/></g></g></g><g fill="#393536" fill-opacity="1"><g transform="translate(237.47453, 292.511904)"><g><path d="M 4.09375 0 L 2.328125 0 L 2.328125 -15.40625 L 4.546875 -15.40625 L 12.0625 -3.640625 L 12.328125 -3.671875 L 12.328125 -15.40625 L 14.09375 -15.40625 L 14.09375 0 L 12.1875 0 L 4.359375 -12.59375 L 4.09375 -12.546875 Z M 4.09375 0 "/></g></g></g><g fill="#393536" fill-opacity="1"><g transform="translate(258.904632, 292.511904)"><g><path d="M 12.015625 -15.40625 L 12.015625 -13.859375 L 7.203125 -13.859375 L 7.203125 0 L 5.390625 0 L 5.390625 -13.859375 L 0.5625 -13.859375 L 0.5625 -15.40625 Z M 12.015625 -15.40625 "/></g></g></g><g fill="#393536" fill-opacity="1"><g transform="translate(276.489714, 292.511904)"><g><path d="M 6.734375 0.21875 C 5.765625 0.21875 4.894531 0.0859375 4.125 -0.171875 C 3.351562 -0.429688 2.710938 -0.773438 2.203125 -1.203125 C 1.691406 -1.640625 1.304688 -2.113281 1.046875 -2.625 L 2.046875 -3.828125 L 2.3125 -3.828125 C 3.257812 -2.210938 4.734375 -1.40625 6.734375 -1.40625 C 7.890625 -1.40625 8.75 -1.644531 9.3125 -2.125 C 9.882812 -2.613281 10.171875 -3.289062 10.171875 -4.15625 C 10.171875 -4.664062 10.078125 -5.09375 9.890625 -5.4375 C 9.703125 -5.789062 9.394531 -6.09375 8.96875 -6.34375 C 8.539062 -6.59375 7.957031 -6.8125 7.21875 -7 L 5.421875 -7.4375 C 4.078125 -7.757812 3.085938 -8.273438 2.453125 -8.984375 C 1.816406 -9.691406 1.5 -10.582031 1.5 -11.65625 C 1.5 -12.425781 1.691406 -13.109375 2.078125 -13.703125 C 2.472656 -14.304688 3.050781 -14.773438 3.8125 -15.109375 C 4.570312 -15.453125 5.476562 -15.625 6.53125 -15.625 C 7.6875 -15.625 8.660156 -15.457031 9.453125 -15.125 C 10.253906 -14.800781 10.894531 -14.316406 11.375 -13.671875 L 10.5 -12.46875 L 10.234375 -12.46875 C 9.785156 -13.007812 9.257812 -13.40625 8.65625 -13.65625 C 8.050781 -13.914062 7.34375 -14.046875 6.53125 -14.046875 C 5.46875 -14.046875 4.660156 -13.835938 4.109375 -13.421875 C 3.566406 -13.003906 3.296875 -12.429688 3.296875 -11.703125 C 3.296875 -11.003906 3.492188 -10.453125 3.890625 -10.046875 C 4.296875 -9.640625 4.972656 -9.320312 5.921875 -9.09375 L 7.765625 -8.65625 C 9.265625 -8.300781 10.347656 -7.757812 11.015625 -7.03125 C 11.679688 -6.300781 12.015625 -5.375 12.015625 -4.25 C 12.015625 -3.375 11.820312 -2.597656 11.4375 -1.921875 C 11.050781 -1.253906 10.457031 -0.726562 9.65625 -0.34375 C 8.863281 0.03125 7.890625 0.21875 6.734375 0.21875 Z M 6.734375 0.21875 "/></g></g></g></svg>