<svg xmlns="http://www.w3.org/2000/svg" xmlns:xlink="http://www.w3.org/1999/xlink" width="90" zoomAndPan="magnify" viewBox="0 0 67.5 60" height="80" preserveAspectRatio="xMidYMid meet" version="1.0"><defs><clipPath id="ce85fd6485"><path d="M 27.710938 2.710938 L 42.605469 2.710938 L 42.605469 20.980469 L 27.710938 20.980469 Z M 27.710938 2.710938 " clip-rule="nonzero"/></clipPath><clipPath id="5144943383"><path d="M 14.8125 17 L 50.164062 17 L 50.164062 37.066406 L 14.8125 37.066406 Z M 14.8125 17 " clip-rule="nonzero"/></clipPath><clipPath id="ed8d624ff9"><path d="M 14.71875 34.949219 L 50.277344 34.949219 L 50.277344 39.167969 L 14.71875 39.167969 Z M 14.71875 34.949219 " clip-rule="nonzero"/></clipPath><clipPath id="12eb8c8333"><path d="M 32.488281 34.949219 C 22.675781 34.949219 14.71875 35.894531 14.71875 37.058594 C 14.71875 38.222656 22.675781 39.167969 32.488281 39.167969 C 42.304688 39.167969 50.261719 38.222656 50.261719 37.058594 C 50.261719 35.894531 42.304688 34.949219 32.488281 34.949219 Z M 32.488281 34.949219 " clip-rule="nonzero"/></clipPath></defs><g clip-path="url(#ce85fd6485)"><path fill="#4f4c4c" d="M 30.863281 2.71875 C 30.855469 2.71875 30.832031 2.71875 30.820312 2.71875 C 29.890625 2.710938 29.078125 3.933594 28.570312 5.265625 C 28.058594 6.621094 27.855469 8.078125 27.957031 9.070312 C 28.097656 10.40625 28.703125 11.128906 29.484375 11.707031 C 30.085938 12.121094 30.429688 13.203125 30.386719 14.320312 C 30.308594 16.519531 30.21875 18.707031 30.101562 20.863281 C 30.515625 20.324219 30.980469 19.792969 31.503906 19.277344 C 31.425781 17.636719 31.359375 15.984375 31.300781 14.320312 C 31.257812 13.203125 31.601562 12.121094 32.199219 11.707031 C 32.984375 11.128906 33.589844 10.40625 33.730469 9.070312 C 33.832031 8.078125 33.628906 6.621094 33.113281 5.265625 C 32.609375 3.933594 31.796875 2.710938 30.863281 2.71875 Z M 42.257812 2.957031 C 42.242188 2.820312 42.128906 2.71875 41.992188 2.71875 C 41.84375 2.71875 41.726562 2.839844 41.726562 2.988281 L 41.726562 9.484375 C 41.726562 9.617188 41.632812 9.742188 41.5 9.769531 C 41.320312 9.808594 41.160156 9.667969 41.160156 9.492188 L 41.160156 2.988281 C 41.160156 2.839844 41.039062 2.71875 40.890625 2.71875 L 40.695312 2.71875 C 40.546875 2.71875 40.425781 2.839844 40.425781 2.988281 L 40.425781 9.484375 C 40.425781 9.617188 40.335938 9.742188 40.203125 9.769531 C 40.019531 9.808594 39.859375 9.667969 39.859375 9.492188 L 39.859375 2.988281 C 39.859375 2.839844 39.738281 2.71875 39.589844 2.71875 L 39.394531 2.71875 C 39.246094 2.71875 39.128906 2.839844 39.128906 2.988281 L 39.128906 9.484375 C 39.128906 9.617188 39.035156 9.742188 38.90625 9.769531 C 38.722656 9.808594 38.5625 9.667969 38.5625 9.492188 L 38.5625 2.988281 C 38.5625 2.839844 38.441406 2.71875 38.292969 2.71875 L 38.097656 2.71875 C 37.949219 2.71875 37.828125 2.839844 37.828125 2.988281 L 37.828125 9.484375 C 37.828125 9.617188 37.738281 9.742188 37.605469 9.769531 C 37.425781 9.808594 37.261719 9.667969 37.261719 9.492188 L 37.261719 2.988281 C 37.261719 2.839844 37.144531 2.71875 36.996094 2.71875 C 36.859375 2.71875 36.742188 2.820312 36.726562 2.957031 C 36.589844 4.226562 36.546875 8.507812 36.605469 9.070312 C 36.75 10.40625 37.351562 11.128906 38.136719 11.707031 C 38.734375 12.121094 39.078125 13.203125 39.039062 14.320312 C 39.03125 14.5 39.023438 14.675781 39.019531 14.855469 C 39.34375 14.714844 39.652344 14.570312 39.953125 14.429688 C 39.953125 14.394531 39.949219 14.359375 39.949219 14.320312 C 39.910156 13.203125 40.253906 12.121094 40.851562 11.707031 C 41.636719 11.128906 42.238281 10.40625 42.382812 9.070312 C 42.4375 8.507812 42.398438 4.226562 42.257812 2.957031 " fill-opacity="1" fill-rule="nonzero"/></g><path fill="#80cc28" d="M 43.460938 16.3125 C 43.460938 16.3125 39.488281 26.570312 25.070312 29.976562 C 29.304688 25.246094 29.015625 19.605469 38.019531 16.039062 C 42.621094 14.214844 45.265625 12.152344 45.265625 12.152344 C 45.265625 12.152344 45.144531 34.414062 29.5625 30.074219 C 29.5625 30.074219 39.667969 27.910156 43.460938 16.3125 " fill-opacity="1" fill-rule="nonzero"/><path fill="#40b93c" d="M 20.886719 10.425781 C 20.886719 10.425781 21.171875 17.246094 28.953125 22.128906 C 27.414062 18.503906 28.714844 15.25 24.140625 11.351562 C 21.800781 9.359375 20.660156 7.617188 20.660156 7.617188 C 20.660156 7.617188 16.277344 20.714844 26.296875 21.289062 C 26.296875 21.289062 20.796875 17.996094 20.886719 10.425781 " fill-opacity="1" fill-rule="nonzero"/><g clip-path="url(#5144943383)"><path fill="#393536" d="M 40.703125 34.574219 L 40.699219 34.566406 L 40.710938 34.578125 C 40.710938 34.578125 40.714844 34.582031 40.703125 34.574219 Z M 24.257812 34.578125 L 24.273438 34.5625 L 24.265625 34.570312 C 24.253906 34.578125 24.261719 34.578125 24.257812 34.578125 Z M 50.085938 17.082031 C 50.03125 17.5 49.980469 17.914062 49.933594 18.328125 C 49.867188 18.738281 49.78125 19.144531 49.710938 19.550781 C 49.628906 19.953125 49.515625 20.355469 49.417969 20.753906 C 49.375 20.953125 49.292969 21.144531 49.234375 21.339844 C 49.167969 21.535156 49.109375 21.730469 49.046875 21.925781 C 48.992188 22.121094 48.90625 22.308594 48.832031 22.5 L 48.605469 23.070312 C 48.539062 23.261719 48.441406 23.441406 48.355469 23.625 L 48.089844 24.175781 C 48.007812 24.359375 47.898438 24.535156 47.804688 24.710938 L 47.507812 25.242188 C 47.414062 25.421875 47.296875 25.585938 47.1875 25.753906 L 46.859375 26.261719 C 46.753906 26.433594 46.625 26.589844 46.507812 26.753906 L 46.148438 27.234375 C 46.035156 27.402344 45.890625 27.546875 45.761719 27.699219 L 45.375 28.15625 C 45.109375 28.457031 44.820312 28.734375 44.546875 29.023438 C 44.257812 29.300781 43.953125 29.558594 43.660156 29.828125 C 43.359375 30.082031 43.039062 30.320312 42.730469 30.570312 C 42.410156 30.800781 42.078125 31.019531 41.75 31.246094 L 40.734375 31.851562 L 39.675781 32.386719 L 37.578125 33.445312 L 39.828125 34.171875 L 39.847656 34.179688 C 39.675781 34.230469 39.496094 34.273438 39.3125 34.316406 C 38.890625 34.414062 38.445312 34.488281 38 34.554688 C 37.101562 34.683594 36.183594 34.761719 35.261719 34.820312 C 34.800781 34.847656 34.339844 34.867188 33.875 34.878906 C 33.40625 34.894531 32.960938 34.894531 32.480469 34.898438 C 32.027344 34.898438 31.554688 34.894531 31.097656 34.878906 C 30.632812 34.867188 30.171875 34.847656 29.710938 34.820312 C 28.789062 34.761719 27.871094 34.6875 26.972656 34.554688 C 26.527344 34.492188 26.082031 34.414062 25.65625 34.316406 C 25.472656 34.277344 25.289062 34.230469 25.113281 34.179688 L 25.144531 34.171875 L 27.382812 33.445312 L 25.292969 32.390625 L 24.238281 31.855469 L 23.21875 31.25 C 22.890625 31.023438 22.5625 30.804688 22.238281 30.574219 C 21.929688 30.324219 21.613281 30.085938 21.308594 29.828125 C 21.015625 29.5625 20.710938 29.304688 20.425781 29.023438 C 20.148438 28.734375 19.859375 28.457031 19.59375 28.160156 L 19.203125 27.703125 C 19.078125 27.546875 18.933594 27.402344 18.820312 27.238281 L 18.460938 26.753906 C 18.34375 26.589844 18.214844 26.433594 18.109375 26.261719 L 17.78125 25.757812 C 17.671875 25.585938 17.554688 25.421875 17.460938 25.242188 L 17.164062 24.710938 C 17.070312 24.535156 16.960938 24.363281 16.878906 24.175781 L 16.613281 23.625 C 16.527344 23.441406 16.429688 23.261719 16.363281 23.070312 L 16.136719 22.5 C 16.0625 22.3125 15.976562 22.125 15.921875 21.925781 L 15.734375 21.34375 C 15.675781 21.144531 15.59375 20.953125 15.550781 20.753906 C 15.457031 20.355469 15.34375 19.953125 15.257812 19.550781 C 15.191406 19.144531 15.105469 18.742188 15.035156 18.328125 C 14.988281 17.914062 14.941406 17.496094 14.886719 17.082031 C 14.863281 17.5 14.84375 17.917969 14.824219 18.335938 C 14.828125 18.753906 14.84375 19.179688 14.859375 19.605469 C 14.890625 20.027344 14.949219 20.445312 14.992188 20.871094 C 15.007812 21.082031 15.0625 21.289062 15.097656 21.496094 L 15.21875 22.125 C 15.25 22.335938 15.316406 22.539062 15.371094 22.746094 L 15.539062 23.363281 C 15.585938 23.574219 15.667969 23.773438 15.734375 23.976562 L 15.945312 24.585938 C 16.089844 24.992188 16.277344 25.378906 16.445312 25.773438 C 16.527344 25.976562 16.636719 26.160156 16.734375 26.355469 L 17.03125 26.929688 C 17.125 27.125 17.253906 27.300781 17.363281 27.484375 L 17.707031 28.035156 C 17.816406 28.226562 17.953125 28.394531 18.078125 28.570312 L 18.457031 29.097656 C 18.722656 29.445312 19.011719 29.769531 19.292969 30.105469 C 19.582031 30.429688 19.890625 30.734375 20.195312 31.050781 C 20.511719 31.351562 20.84375 31.636719 21.167969 31.929688 C 21.507812 32.203125 21.859375 32.464844 22.203125 32.734375 C 22.421875 32.886719 22.640625 33.03125 22.859375 33.175781 C 22.839844 33.199219 22.816406 33.222656 22.789062 33.25 C 22.746094 33.300781 22.703125 33.347656 22.65625 33.421875 C 22.632812 33.453125 22.609375 33.488281 22.589844 33.519531 C 22.566406 33.5625 22.546875 33.605469 22.527344 33.644531 C 22.484375 33.722656 22.453125 33.832031 22.425781 33.933594 C 22.414062 33.984375 22.410156 34.042969 22.402344 34.101562 L 22.398438 34.1875 L 22.398438 34.207031 C 22.394531 34.1875 22.410156 34.457031 22.40625 34.34375 L 22.40625 34.355469 L 22.410156 34.402344 L 22.414062 34.421875 L 22.414062 34.4375 L 22.425781 34.488281 C 22.453125 34.617188 22.503906 34.765625 22.5625 34.871094 C 22.601562 34.941406 22.644531 35.011719 22.691406 35.078125 C 22.738281 35.140625 22.777344 35.179688 22.824219 35.230469 C 22.847656 35.253906 22.871094 35.28125 22.890625 35.300781 L 22.953125 35.355469 C 22.996094 35.394531 23.039062 35.429688 23.078125 35.460938 L 23.195312 35.542969 C 23.351562 35.652344 23.492188 35.726562 23.628906 35.796875 C 24.179688 36.058594 24.675781 36.199219 25.175781 36.332031 C 25.671875 36.453125 26.164062 36.546875 26.652344 36.628906 C 27.628906 36.785156 28.601562 36.898438 29.574219 36.957031 C 30.058594 36.992188 30.546875 37.015625 31.03125 37.03125 C 31.515625 37.046875 31.996094 37.058594 32.492188 37.058594 C 32.957031 37.058594 33.460938 37.046875 33.941406 37.03125 C 34.425781 37.015625 34.914062 36.992188 35.398438 36.960938 C 36.371094 36.898438 37.34375 36.789062 38.320312 36.628906 C 38.808594 36.550781 39.300781 36.457031 39.796875 36.332031 C 40.296875 36.203125 40.792969 36.058594 41.339844 35.796875 C 41.480469 35.726562 41.621094 35.652344 41.777344 35.546875 L 41.894531 35.464844 C 41.933594 35.429688 41.976562 35.394531 42.019531 35.359375 L 42.082031 35.304688 C 42.101562 35.285156 42.125 35.257812 42.148438 35.234375 C 42.195312 35.183594 42.234375 35.140625 42.28125 35.078125 C 42.328125 35.011719 42.371094 34.941406 42.414062 34.871094 C 42.457031 34.789062 42.492188 34.691406 42.523438 34.597656 C 42.550781 34.5 42.566406 34.378906 42.574219 34.269531 L 42.578125 34.226562 C 42.582031 34.304688 42.574219 34.097656 42.574219 34.117188 L 42.574219 34.113281 L 42.570312 34.089844 L 42.566406 34.070312 L 42.558594 34.015625 C 42.539062 33.878906 42.480469 33.707031 42.449219 33.644531 C 42.429688 33.601562 42.40625 33.558594 42.382812 33.519531 C 42.363281 33.484375 42.339844 33.453125 42.316406 33.417969 C 42.269531 33.347656 42.226562 33.300781 42.179688 33.246094 C 42.15625 33.21875 42.136719 33.199219 42.113281 33.175781 C 42.335938 33.03125 42.554688 32.890625 42.769531 32.738281 C 43.113281 32.46875 43.464844 32.207031 43.804688 31.929688 C 44.128906 31.636719 44.464844 31.355469 44.78125 31.054688 C 45.082031 30.738281 45.394531 30.433594 45.683594 30.105469 C 45.960938 29.769531 46.25 29.445312 46.515625 29.101562 L 46.894531 28.574219 C 47.019531 28.394531 47.15625 28.226562 47.265625 28.039062 L 47.609375 27.488281 C 47.722656 27.300781 47.847656 27.125 47.941406 26.929688 L 48.242188 26.355469 C 48.339844 26.164062 48.449219 25.976562 48.527344 25.773438 L 48.785156 25.183594 C 48.871094 24.984375 48.960938 24.792969 49.027344 24.585938 L 49.238281 23.976562 C 49.304688 23.773438 49.386719 23.574219 49.433594 23.367188 L 49.601562 22.746094 C 49.65625 22.539062 49.722656 22.335938 49.757812 22.125 C 49.835938 21.707031 49.925781 21.289062 49.980469 20.871094 C 50.023438 20.445312 50.082031 20.027344 50.113281 19.605469 C 50.128906 19.183594 50.144531 18.761719 50.144531 18.339844 C 50.128906 17.917969 50.109375 17.5 50.085938 17.082031 " fill-opacity="1" fill-rule="nonzero"/></g><g clip-path="url(#ed8d624ff9)"><g clip-path="url(#12eb8c8333)"><path fill="#393536" d="M 14.71875 34.949219 L 50.261719 34.949219 L 50.261719 39.167969 L 14.71875 39.167969 Z M 14.71875 34.949219 " fill-opacity="1" fill-rule="nonzero"/></g></g><path fill="#3ca638" d="M 4.457031 48.214844 L 2.6875 48.214844 L 2.6875 46.074219 L 0.5 42.703125 L 2.535156 42.703125 L 3.59375 44.539062 L 3.625 44.539062 L 4.683594 42.703125 L 6.613281 42.703125 L 4.457031 46.074219 Z M 4.457031 48.214844 " fill-opacity="1" fill-rule="nonzero"/><path fill="#3ca638" d="M 12.917969 45.996094 C 12.917969 46.746094 12.679688 47.320312 12.207031 47.71875 C 11.730469 48.113281 11.058594 48.3125 10.179688 48.3125 C 9.304688 48.3125 8.625 48.113281 8.148438 47.71875 C 7.671875 47.320312 7.433594 46.746094 7.433594 45.996094 L 7.433594 42.703125 L 9.203125 42.703125 L 9.203125 45.96875 C 9.203125 46.28125 9.28125 46.527344 9.449219 46.714844 C 9.613281 46.898438 9.855469 46.988281 10.171875 46.988281 C 10.484375 46.988281 10.726562 46.894531 10.898438 46.710938 C 11.066406 46.523438 11.152344 46.277344 11.152344 45.96875 L 11.152344 42.703125 L 12.917969 42.703125 Z M 12.917969 45.996094 " fill-opacity="1" fill-rule="nonzero"/><path fill="#3ca638" d="M 19 48.214844 L 19 46.226562 C 19 45.984375 19.007812 45.730469 19.027344 45.46875 C 19.046875 45.210938 19.070312 44.992188 19.089844 44.816406 C 19.109375 44.640625 19.125 44.527344 19.128906 44.480469 L 19.097656 44.480469 L 18.078125 48.214844 L 16.691406 48.214844 L 15.667969 44.492188 L 15.636719 44.492188 C 15.640625 44.539062 15.65625 44.648438 15.679688 44.820312 C 15.703125 44.996094 15.726562 45.210938 15.746094 45.46875 C 15.769531 45.730469 15.777344 45.984375 15.777344 46.226562 L 15.777344 48.214844 L 14.152344 48.214844 L 14.152344 42.703125 L 16.65625 42.703125 L 17.488281 45.882812 L 17.519531 45.882812 L 18.34375 42.703125 L 20.757812 42.703125 L 20.757812 48.214844 Z M 19 48.214844 " fill-opacity="1" fill-rule="nonzero"/><path fill="#3ca638" d="M 22.070312 42.703125 L 23.839844 42.703125 L 23.839844 48.214844 L 22.070312 48.214844 Z M 22.070312 42.703125 " fill-opacity="1" fill-rule="nonzero"/><path fill="#3ca638" d="M 29.207031 48.214844 L 26.894531 45.539062 L 26.894531 48.214844 L 25.269531 48.214844 L 25.269531 42.703125 L 26.816406 42.703125 L 29.128906 45.417969 L 29.128906 42.703125 L 30.753906 42.703125 L 30.753906 48.214844 Z M 29.207031 48.214844 " fill-opacity="1" fill-rule="nonzero"/><path fill="#3ca638" d="M 34.839844 42.605469 C 35.792969 42.605469 36.527344 42.851562 37.042969 43.335938 C 37.5625 43.820312 37.824219 44.527344 37.824219 45.460938 C 37.824219 46.390625 37.5625 47.097656 37.042969 47.582031 C 36.527344 48.070312 35.792969 48.3125 34.839844 48.3125 C 33.890625 48.3125 33.15625 48.070312 32.640625 47.585938 C 32.128906 47.101562 31.871094 46.394531 31.871094 45.460938 C 31.871094 44.523438 32.128906 43.816406 32.640625 43.332031 C 33.15625 42.851562 33.890625 42.605469 34.839844 42.605469 Z M 34.839844 43.925781 C 34.464844 43.925781 34.175781 44.042969 33.976562 44.273438 C 33.777344 44.503906 33.679688 44.8125 33.679688 45.203125 L 33.679688 45.71875 C 33.679688 46.105469 33.777344 46.414062 33.976562 46.644531 C 34.175781 46.875 34.464844 46.988281 34.839844 46.988281 C 35.222656 46.988281 35.511719 46.875 35.710938 46.644531 C 35.910156 46.414062 36.011719 46.105469 36.011719 45.71875 L 36.011719 45.203125 C 36.011719 44.8125 35.910156 44.503906 35.710938 44.273438 C 35.511719 44.042969 35.222656 43.925781 34.839844 43.925781 Z M 34.839844 43.925781 " fill-opacity="1" fill-rule="nonzero"/><path fill="#3ca638" d="M 44.425781 45.996094 C 44.425781 46.746094 44.1875 47.320312 43.710938 47.71875 C 43.238281 48.113281 42.5625 48.3125 41.6875 48.3125 C 40.808594 48.3125 40.132812 48.113281 39.652344 47.71875 C 39.175781 47.320312 38.9375 46.746094 38.9375 45.996094 L 38.9375 42.703125 L 40.707031 42.703125 L 40.707031 45.96875 C 40.707031 46.28125 40.789062 46.527344 40.953125 46.714844 C 41.121094 46.898438 41.359375 46.988281 41.675781 46.988281 C 41.992188 46.988281 42.234375 46.894531 42.402344 46.710938 C 42.570312 46.523438 42.65625 46.277344 42.65625 45.96875 L 42.65625 42.703125 L 44.425781 42.703125 Z M 44.425781 45.996094 " fill-opacity="1" fill-rule="nonzero"/><path fill="#3ca638" d="M 45.851562 42.703125 L 47.621094 42.703125 L 47.621094 48.214844 L 45.851562 48.214844 Z M 45.851562 42.703125 " fill-opacity="1" fill-rule="nonzero"/><path fill="#3ca638" d="M 49.050781 42.703125 L 50.820312 42.703125 L 50.820312 46.804688 L 53.648438 46.804688 L 53.648438 48.214844 L 49.050781 48.214844 Z M 49.050781 42.703125 " fill-opacity="1" fill-rule="nonzero"/><path fill="#3ca638" d="M 54.554688 42.703125 L 56.324219 42.703125 L 56.324219 46.804688 L 59.152344 46.804688 L 59.152344 48.214844 L 54.554688 48.214844 Z M 54.554688 42.703125 " fill-opacity="1" fill-rule="nonzero"/><path fill="#3ca638" d="M 60.058594 42.703125 L 64.824219 42.703125 L 64.824219 44.023438 L 61.828125 44.023438 L 61.828125 44.785156 L 64.390625 44.785156 L 64.390625 46.050781 L 61.828125 46.050781 L 61.828125 46.894531 L 64.882812 46.894531 L 64.882812 48.214844 L 60.058594 48.214844 Z M 60.058594 42.703125 " fill-opacity="1" fill-rule="nonzero"/><path fill="#393536" d="M 10.277344 55.113281 L 10.277344 51.6875 L 11.523438 51.6875 C 11.75 51.6875 11.945312 51.726562 12.097656 51.804688 C 12.257812 51.878906 12.375 51.988281 12.453125 52.125 C 12.53125 52.261719 12.570312 52.425781 12.570312 52.617188 C 12.570312 52.828125 12.519531 53 12.410156 53.140625 C 12.304688 53.28125 12.140625 53.382812 11.914062 53.449219 L 11.914062 53.5 C 12.027344 53.542969 12.117188 53.613281 12.1875 53.707031 C 12.253906 53.800781 12.320312 53.9375 12.378906 54.125 L 12.695312 55.113281 L 12.285156 55.113281 L 11.941406 54.066406 C 11.898438 53.941406 11.855469 53.84375 11.800781 53.777344 C 11.746094 53.707031 11.679688 53.65625 11.597656 53.625 C 11.515625 53.59375 11.414062 53.578125 11.289062 53.578125 L 10.683594 53.578125 L 10.683594 55.113281 Z M 11.511719 53.234375 C 11.726562 53.234375 11.886719 53.1875 11.992188 53.089844 C 12.097656 52.988281 12.148438 52.835938 12.148438 52.632812 C 12.148438 52.429688 12.097656 52.277344 11.992188 52.179688 C 11.886719 52.082031 11.726562 52.03125 11.511719 52.03125 L 10.683594 52.03125 L 10.683594 53.234375 Z M 11.511719 53.234375 " fill-opacity="1" fill-rule="nonzero"/><path fill="#393536" d="M 14.964844 53.5 L 14.964844 54.78125 L 16.710938 54.78125 L 16.710938 55.113281 L 14.5625 55.113281 L 14.5625 51.6875 L 16.675781 51.6875 L 16.675781 52.023438 L 14.964844 52.023438 L 14.964844 53.167969 L 16.472656 53.167969 L 16.472656 53.5 Z M 14.964844 53.5 " fill-opacity="1" fill-rule="nonzero"/><path fill="#393536" d="M 19.550781 55.164062 C 19.335938 55.164062 19.140625 55.132812 18.96875 55.074219 C 18.796875 55.019531 18.65625 54.941406 18.542969 54.847656 C 18.429688 54.75 18.34375 54.644531 18.285156 54.53125 L 18.507812 54.261719 L 18.566406 54.261719 C 18.777344 54.621094 19.105469 54.800781 19.550781 54.800781 C 19.804688 54.800781 19.996094 54.75 20.121094 54.640625 C 20.25 54.53125 20.3125 54.382812 20.3125 54.191406 C 20.3125 54.078125 20.292969 53.980469 20.25 53.90625 C 20.210938 53.828125 20.140625 53.757812 20.046875 53.703125 C 19.949219 53.648438 19.820312 53.597656 19.65625 53.558594 L 19.257812 53.460938 C 18.957031 53.390625 18.738281 53.273438 18.597656 53.117188 C 18.457031 52.957031 18.386719 52.761719 18.386719 52.523438 C 18.386719 52.351562 18.429688 52.199219 18.515625 52.066406 C 18.601562 51.933594 18.730469 51.828125 18.898438 51.753906 C 19.066406 51.675781 19.269531 51.640625 19.503906 51.640625 C 19.761719 51.640625 19.976562 51.675781 20.152344 51.75 C 20.332031 51.824219 20.472656 51.929688 20.582031 52.074219 L 20.386719 52.339844 L 20.328125 52.339844 C 20.226562 52.222656 20.109375 52.132812 19.976562 52.078125 C 19.84375 52.019531 19.683594 51.992188 19.503906 51.992188 C 19.269531 51.992188 19.089844 52.039062 18.964844 52.128906 C 18.84375 52.222656 18.785156 52.351562 18.785156 52.511719 C 18.785156 52.667969 18.828125 52.789062 18.917969 52.878906 C 19.007812 52.96875 19.15625 53.042969 19.367188 53.089844 L 19.777344 53.1875 C 20.113281 53.269531 20.351562 53.390625 20.5 53.550781 C 20.648438 53.710938 20.722656 53.917969 20.722656 54.167969 C 20.722656 54.363281 20.679688 54.535156 20.59375 54.6875 C 20.507812 54.835938 20.378906 54.953125 20.199219 55.039062 C 20.023438 55.121094 19.804688 55.164062 19.550781 55.164062 Z M 19.550781 55.164062 " fill-opacity="1" fill-rule="nonzero"/><path fill="#393536" d="M 24.773438 51.6875 L 24.773438 52.03125 L 23.703125 52.03125 L 23.703125 55.113281 L 23.300781 55.113281 L 23.300781 52.03125 L 22.226562 52.03125 L 22.226562 51.6875 Z M 24.773438 51.6875 " fill-opacity="1" fill-rule="nonzero"/><path fill="#393536" d="M 29.09375 55.113281 L 28.660156 55.113281 L 28.34375 54.175781 L 26.886719 54.175781 L 26.566406 55.113281 L 26.144531 55.113281 L 27.339844 51.6875 L 27.898438 51.6875 Z M 27.589844 52.105469 L 27 53.835938 L 28.230469 53.835938 L 27.648438 52.105469 Z M 27.589844 52.105469 " fill-opacity="1" fill-rule="nonzero"/><path fill="#393536" d="M 32.105469 55.164062 C 31.6875 55.164062 31.371094 55.054688 31.15625 54.84375 C 30.941406 54.628906 30.832031 54.3125 30.832031 53.894531 L 30.832031 51.6875 L 31.230469 51.6875 L 31.230469 53.890625 C 31.230469 54.191406 31.304688 54.414062 31.445312 54.566406 C 31.59375 54.714844 31.8125 54.789062 32.105469 54.789062 C 32.691406 54.789062 32.984375 54.492188 32.984375 53.890625 L 32.984375 51.6875 L 33.386719 51.6875 L 33.386719 53.894531 C 33.386719 54.3125 33.277344 54.628906 33.0625 54.84375 C 32.847656 55.054688 32.527344 55.164062 32.105469 55.164062 Z M 32.105469 55.164062 " fill-opacity="1" fill-rule="nonzero"/><path fill="#393536" d="M 35.503906 55.113281 L 35.503906 51.6875 L 36.746094 51.6875 C 36.976562 51.6875 37.167969 51.726562 37.324219 51.804688 C 37.480469 51.878906 37.597656 51.988281 37.679688 52.125 C 37.757812 52.261719 37.796875 52.425781 37.796875 52.617188 C 37.796875 52.828125 37.742188 53 37.636719 53.140625 C 37.53125 53.28125 37.363281 53.382812 37.140625 53.449219 L 37.140625 53.5 C 37.25 53.542969 37.339844 53.613281 37.410156 53.707031 C 37.480469 53.800781 37.542969 53.9375 37.605469 54.125 L 37.921875 55.113281 L 37.507812 55.113281 L 37.164062 54.066406 C 37.125 53.941406 37.078125 53.84375 37.023438 53.777344 C 36.972656 53.707031 36.902344 53.65625 36.824219 53.625 C 36.742188 53.59375 36.640625 53.578125 36.515625 53.578125 L 35.90625 53.578125 L 35.90625 55.113281 Z M 36.738281 53.234375 C 36.953125 53.234375 37.113281 53.1875 37.214844 53.089844 C 37.320312 52.988281 37.371094 52.835938 37.371094 52.632812 C 37.371094 52.429688 37.320312 52.277344 37.214844 52.179688 C 37.113281 52.082031 36.953125 52.03125 36.738281 52.03125 L 35.90625 52.03125 L 35.90625 53.234375 Z M 36.738281 53.234375 " fill-opacity="1" fill-rule="nonzero"/><path fill="#393536" d="M 42.351562 55.113281 L 41.921875 55.113281 L 41.605469 54.175781 L 40.144531 54.175781 L 39.828125 55.113281 L 39.40625 55.113281 L 40.601562 51.6875 L 41.15625 51.6875 Z M 40.847656 52.105469 L 40.261719 53.835938 L 41.492188 53.835938 L 40.90625 52.105469 Z M 40.847656 52.105469 " fill-opacity="1" fill-rule="nonzero"/><path fill="#393536" d="M 44.511719 55.113281 L 44.121094 55.113281 L 44.121094 51.6875 L 44.613281 51.6875 L 46.285156 54.304688 L 46.34375 54.296875 L 46.34375 51.6875 L 46.734375 51.6875 L 46.734375 55.113281 L 46.3125 55.113281 L 44.570312 52.3125 L 44.511719 52.324219 Z M 44.511719 55.113281 " fill-opacity="1" fill-rule="nonzero"/><path fill="#393536" d="M 51.039062 51.6875 L 51.039062 52.03125 L 49.96875 52.03125 L 49.96875 55.113281 L 49.566406 55.113281 L 49.566406 52.03125 L 48.492188 52.03125 L 48.492188 51.6875 Z M 51.039062 51.6875 " fill-opacity="1" fill-rule="nonzero"/><path fill="#393536" d="M 53.773438 55.164062 C 53.558594 55.164062 53.367188 55.132812 53.195312 55.074219 C 53.023438 55.019531 52.878906 54.941406 52.765625 54.847656 C 52.652344 54.75 52.566406 54.644531 52.511719 54.53125 L 52.734375 54.261719 L 52.792969 54.261719 C 53 54.621094 53.328125 54.800781 53.773438 54.800781 C 54.03125 54.800781 54.222656 54.75 54.347656 54.640625 C 54.476562 54.53125 54.539062 54.382812 54.539062 54.191406 C 54.539062 54.078125 54.519531 53.980469 54.476562 53.90625 C 54.433594 53.828125 54.367188 53.757812 54.273438 53.703125 C 54.175781 53.648438 54.046875 53.597656 53.882812 53.558594 L 53.484375 53.460938 C 53.183594 53.390625 52.964844 53.273438 52.824219 53.117188 C 52.679688 52.957031 52.609375 52.761719 52.609375 52.523438 C 52.609375 52.351562 52.652344 52.199219 52.738281 52.066406 C 52.828125 51.933594 52.957031 51.828125 53.125 51.753906 C 53.292969 51.675781 53.496094 51.640625 53.730469 51.640625 C 53.988281 51.640625 54.203125 51.675781 54.378906 51.75 C 54.558594 51.824219 54.699219 51.929688 54.804688 52.074219 L 54.613281 52.339844 L 54.554688 52.339844 C 54.453125 52.222656 54.335938 52.132812 54.203125 52.078125 C 54.066406 52.019531 53.910156 51.992188 53.730469 51.992188 C 53.492188 51.992188 53.3125 52.039062 53.191406 52.128906 C 53.070312 52.222656 53.011719 52.351562 53.011719 52.511719 C 53.011719 52.667969 53.054688 52.789062 53.140625 52.878906 C 53.234375 52.96875 53.382812 53.042969 53.59375 53.089844 L 54.003906 53.1875 C 54.335938 53.269531 54.578125 53.390625 54.726562 53.550781 C 54.875 53.710938 54.949219 53.917969 54.949219 54.167969 C 54.949219 54.363281 54.90625 54.535156 54.820312 54.6875 C 54.734375 54.835938 54.601562 54.953125 54.425781 55.039062 C 54.25 55.121094 54.03125 55.164062 53.773438 55.164062 Z M 53.773438 55.164062 " fill-opacity="1" fill-rule="nonzero"/></svg>